<?xml version="1.0" encoding="UTF-8" standalone="no"?>
<!DOCTYPE svg PUBLIC "-//W3C//DTD SVG 1.1//EN" "http://www.w3.org/Graphics/SVG/1.1/DTD/svg11.dtd">
<!-- Created with Vectornator (http://vectornator.io/) -->
<svg height="100%" stroke-miterlimit="10" style="fill-rule:nonzero;clip-rule:evenodd;stroke-linecap:round;stroke-linejoin:round;" version="1.1" viewBox="-0.584602 3.42669 26.5361 18.5608" width="100%" xml:space="preserve" xmlns="http://www.w3.org/2000/svg" xmlns:vectornator="http://vectornator.io" xmlns:xlink="http://www.w3.org/1999/xlink">
<defs>
<filter color-interpolation-filters="sRGB" filterUnits="userSpaceOnUse" height="18.5608" id="Filter" width="26.5361" x="-0.584602" y="3.42669">
<feDropShadow dx="0.707105" dy="0.707108" flood-color="#737994" flood-opacity="0.35" in="SourceGraphic" result="Shadow" stdDeviation="0.5"/>
</filter>
<linearGradient gradientTransform="matrix(24.0361 0 0 24.0361 -0.0417075 12)" gradientUnits="userSpaceOnUse" id="LinearGradient" x1="0" x2="1" y1="0" y2="0">
<stop offset="0" stop-color="#f56f2a"/>
<stop offset="1" stop-color="#e5c890"/>
</linearGradient>
<linearGradient gradientTransform="matrix(1.92245 0 0 1.92245 8.34718 11.4525)" gradientUnits="userSpaceOnUse" id="LinearGradient_2" x1="0" x2="1" y1="0" y2="0">
<stop offset="0" stop-color="#f56f2a"/>
<stop offset="1" stop-color="#e5c890"/>
</linearGradient>
<linearGradient gradientTransform="matrix(1.46619 0 0 1.46619 14.7833 11.27)" gradientUnits="userSpaceOnUse" id="LinearGradient_3" x1="0" x2="1" y1="0" y2="0">
<stop offset="0" stop-color="#f56f2a"/>
<stop offset="1" stop-color="#e5c890"/>
</linearGradient>
<linearGradient gradientTransform="matrix(1.36882 0 0 1.36882 12.4106 17.2471)" gradientUnits="userSpaceOnUse" id="LinearGradient_4" x1="0" x2="1" y1="0" y2="0">
<stop offset="0" stop-color="#f56f2a"/>
<stop offset="1" stop-color="#e5c890"/>
</linearGradient>
</defs>
<g id="Layer">
<g filter="url(#Filter)">
<path d="M9.76426 4.06084C9.84101 4.166 9.84101 4.166 9.91932 4.27329C10.1628 4.55599 10.4196 4.69806 10.751 4.85361C10.8588 4.90666 10.9667 4.95972 11.0778 5.01438C11.7276 5.31591 11.7276 5.31591 12.4082 5.23253C12.5335 5.17666 12.6579 5.11874 12.7814 5.05894C12.8746 5.01773 12.8746 5.01773 12.9698 4.9757C13.4913 4.73572 13.9121 4.45509 14.2357 3.96958C14.5437 4.01952 14.6995 4.06585 14.9658 4.24335C14.7742 4.94591 14.1487 5.36501 13.5517 5.71732C13.5064 5.74285 13.4611 5.76838 13.4144 5.79468C13.485 5.8202 13.5556 5.84573 13.6283 5.87203C14.3404 6.14612 14.951 6.44486 15.3764 7.10076C15.5209 7.8775 15.3948 8.46238 15.057 9.1711C15.1494 9.1224 15.2417 9.0737 15.3369 9.02353C17.3067 8.02141 20.7502 6.45584 22.9734 7.08365C23.4833 7.27318 23.7004 7.56818 23.943 8.05323C24.0814 8.77333 23.9384 9.34499 23.5345 9.95283C22.8344 10.8502 21.8747 11.3656 20.8973 11.9087C20.9275 11.969 20.9576 12.0292 20.9886 12.0913C21.0371 12.5332 21.0365 12.8979 20.8517 13.3061C20.3748 13.8187 19.8753 14.0773 19.1785 14.1206C18.0736 14.1473 17.1816 13.9738 16.1521 13.5513C16.1408 13.6069 16.1295 13.6624 16.1179 13.7196C15.7756 15.1741 14.9687 16.3236 14.0532 17.4753C13.9671 17.5855 13.8811 17.6957 13.7952 17.8061C13.5905 18.0684 13.3844 18.3297 13.1778 18.5905C12.9461 18.8835 12.7155 19.1776 12.4848 19.4715C12.3998 19.5796 12.3149 19.6877 12.2299 19.7959C12.1387 19.912 12.1387 19.912 12.0456 20.0304C11.7636 19.9083 11.6087 19.789 11.4272 19.5421C11.3809 19.4802 11.3347 19.4183 11.287 19.3545C11.2381 19.2877 11.1892 19.2209 11.1388 19.1521C10.7808 18.6717 10.4182 18.1992 10.0336 17.7398C9.04188 16.5531 7.96713 15.1264 7.75665 13.5513C7.66972 13.5832 7.58279 13.6151 7.49323 13.6479C7.37762 13.6899 7.26201 13.7318 7.14639 13.7738C7.08928 13.7948 7.03217 13.8158 6.97332 13.8374C6.06357 14.166 4.81487 14.3307 3.89544 13.9449C3.47273 13.7103 3.06888 13.3858 2.92015 12.9125C2.90549 12.6683 2.91156 12.4269 2.92015 12.1825C2.92015 12.0621 2.92015 11.9416 2.92015 11.8175C2.85722 11.7854 2.79428 11.7533 2.72944 11.7202C1.7287 11.1944 0.535771 10.456 0.0566778 9.37856C-0.0912941 8.83693-0.0709851 8.28526 0.108365 7.75665C0.451494 7.28337 0.798054 7.09514 1.36882 6.98099C1.92902 6.94606 2.45772 7.00504 3.0057 7.11787C3.08286 7.13366 3.16002 7.14946 3.23952 7.16573C4.86128 7.51563 6.43281 8.04692 7.94464 8.72681C8.21513 8.84793 8.4878 8.96371 8.76046 9.07985C8.71529 8.9801 8.67011 8.88034 8.62357 8.77757C8.41045 8.2062 8.3976 7.62376 8.58365 7.04373C9.0803 6.35483 9.71061 6.0855 10.4943 5.79468C10.3722 5.71369 10.3722 5.71369 10.2476 5.63106C10.1397 5.55826 10.0318 5.48542 9.92395 5.41255C9.87043 5.3772 9.81691 5.34185 9.76176 5.30543C9.42827 5.07873 9.17212 4.8563 8.94297 4.51711C8.94297 4.31749 8.94297 4.31749 9.03422 4.15209C9.295 3.96325 9.47063 3.9232 9.76426 4.06084ZM10.962 6.5019C10.8899 6.52496 10.8178 6.54801 10.7435 6.57177C10.1916 6.75541 9.58897 6.98215 9.30798 7.52852C9.2672 7.96894 9.33038 8.30453 9.49049 8.71483C9.83559 8.67077 10.168 8.61597 10.5057 8.53232C11.8053 8.24254 13.0465 8.40033 14.327 8.71483C14.5688 8.30177 14.6692 8.00725 14.6008 7.52852C14.1562 6.73472 13.154 6.54227 12.3337 6.2948C11.8284 6.18221 11.4331 6.3436 10.962 6.5019ZM0.912548 8.07605C0.732701 8.30494 0.730089 8.43846 0.724335 8.73194C1.05079 9.90334 2.2467 10.5208 3.22992 11.0935C3.59332 11.2237 3.86877 11.1465 4.21946 11.0051C4.28193 10.9739 4.34439 10.9428 4.40875 10.9106C5.19402 10.5495 6.05295 10.3856 6.89544 10.6369C7.11787 10.8137 7.11787 10.8137 7.21483 11.116C7.20828 11.5026 7.15414 11.6824 6.93536 12C6.49181 12.4003 6.05383 12.466 5.47529 12.4563C5.10604 12.4135 4.74458 12.3464 4.38023 12.2738C4.19852 12.2389 4.01604 12.2074 3.8327 12.1825C3.71377 12.283 3.71377 12.283 3.70722 12.5304C3.71436 12.8303 3.71436 12.8303 3.92395 13.0266C4.71055 13.4855 5.55671 13.4215 6.41778 13.1991C7.07883 12.9932 7.07883 12.9932 7.6654 12.6388C7.72715 12.3852 7.72715 12.3852 7.71673 12.097C7.74841 11.2868 7.96085 10.5865 8.39544 9.90114C7.83994 9.52775 7.28916 9.2751 6.6616 9.04563C6.56694 9.01062 6.47228 8.97562 6.37475 8.93956C5.69182 8.69162 5.00311 8.46908 4.30608 8.26426C4.17489 8.22564 4.17489 8.22564 4.04105 8.18624C2.42841 7.66702 2.42841 7.66702 0.912548 8.07605ZM20.7433 7.99049C20.6205 8.02106 20.6205 8.02106 20.4952 8.05225C19.144 8.39566 17.8195 8.78711 16.5342 9.3308C16.4525 9.36518 16.3707 9.39956 16.2865 9.43498C16.2114 9.46788 16.1364 9.50079 16.0591 9.5347C15.9601 9.57806 15.9601 9.57806 15.8591 9.6223C15.6661 9.72019 15.6661 9.72019 15.5133 9.9924C15.5518 10.0672 15.5902 10.142 15.6299 10.2191C15.6799 10.3174 15.7299 10.4158 15.7814 10.5171C15.8311 10.6145 15.8809 10.7119 15.9322 10.8123C16.0893 11.1484 16.1531 11.3606 16.1489 11.7316C16.129 12.3203 16.129 12.3203 16.4073 12.8081C16.6539 12.9391 16.8868 13.0199 17.1559 13.0951C17.258 13.1247 17.3601 13.1543 17.4653 13.1849C18.2616 13.3848 18.9791 13.4494 19.7567 13.1578C19.9922 12.9988 20.1371 12.8969 20.2586 12.6388C20.1938 12.3893 20.1938 12.3893 20.076 12.1825C20.0239 12.1946 19.9718 12.2067 19.9181 12.2192C18.0888 12.6177 18.0888 12.6177 17.3384 12.2738C17.0151 12.0079 16.7975 11.7724 16.6996 11.3612C16.7338 11.0133 16.7338 11.0133 16.7909 10.7224C17.6373 10.366 18.4996 10.5331 19.346 10.8137C19.5384 10.9067 19.7207 11.0035 19.9014 11.1174C20.2403 11.2364 20.5456 11.1208 20.8645 10.9844C21.7381 10.5045 22.8105 9.88664 23.1534 8.88771C23.2184 8.55109 23.1944 8.37623 23.019 8.08175C22.6657 7.75784 22.3305 7.78243 21.8756 7.78762C21.4859 7.81064 21.1207 7.89409 20.7433 7.99049ZM10.038 9.53612C9.91652 9.5973 9.79489 9.65823 9.673 9.71863C9.77074 9.92161 9.86371 10.0941 10.0038 10.2719C10.2022 10.6958 10.2031 11.0849 10.1293 11.5437C9.8373 12.3113 9.16456 12.6925 8.48669 13.0951C8.51681 13.2155 8.54692 13.336 8.57795 13.4601C8.65982 13.4237 8.74169 13.3874 8.82605 13.3499C10.5931 12.5899 12.4443 12.3714 14.2889 13.0291C14.5477 13.1371 14.8023 13.2514 15.057 13.3688C15.1925 13.414 15.1925 13.414 15.3308 13.4601C15.3609 13.3396 15.391 13.2192 15.4221 13.0951C15.3636 13.0574 15.3051 13.0198 15.2449 12.981C14.6704 12.5974 14.096 12.1767 13.7795 11.5437C13.6871 10.8455 13.846 10.3861 14.2357 9.80989C13.118 8.95688 11.2627 8.83701 10.038 9.53612ZM9.03422 10.3574C8.61868 10.8699 8.39544 11.5207 8.39544 12.1825C8.86485 12.0583 9.13694 11.7547 9.39924 11.3612C9.4882 11.1377 9.51049 11.0456 9.41956 10.8208C9.38462 10.7658 9.34968 10.7107 9.31369 10.654C9.25158 10.5561 9.18947 10.4583 9.12548 10.3574C9.09536 10.3574 9.06525 10.3574 9.03422 10.3574ZM14.6407 10.5456C14.4332 10.8253 14.4636 11.0224 14.5095 11.3612C14.7398 11.6938 14.9856 11.9682 15.3308 12.1825C15.391 12.1825 15.4513 12.1825 15.5133 12.1825C15.4315 11.5182 15.3072 10.9748 14.8745 10.4487C14.7671 10.4401 14.7671 10.4401 14.6407 10.5456ZM4.74525 11.5437C4.74525 11.5738 4.74525 11.604 4.74525 11.635C5.16165 11.7424 5.59674 11.7987 6.02281 11.7262C6.30271 11.5152 6.30271 11.5152 6.47909 11.27C5.84366 11.2392 5.34448 11.3336 4.74525 11.5437ZM17.4297 11.27C17.6929 11.6106 17.6929 11.6106 18.0831 11.7597C18.4513 11.761 18.806 11.7273 19.1635 11.635C18.858 11.3295 18.4397 11.2793 18.0203 11.2586C17.8231 11.2586 17.6267 11.2618 17.4297 11.27ZM8.85171 14.1901C8.90187 14.4958 8.97027 14.7296 9.13118 14.9943C9.18952 15.0903 9.24787 15.1863 9.30798 15.2852C9.58223 15.1942 9.85613 15.1024 10.1293 15.0082C10.2648 14.9618 10.2648 14.9618 10.403 14.9144C10.4934 14.8833 10.5837 14.8521 10.6768 14.82C11.5322 14.5627 12.3073 14.6003 13.1635 14.8118C13.2249 14.8269 13.2864 14.8419 13.3497 14.8575C13.6446 14.935 13.9 15.0265 14.1716 15.1665C14.4183 15.3205 14.4183 15.3205 14.692 15.1939C14.8049 15.0339 14.8049 15.0339 14.8916 14.8403C14.9387 14.7447 14.9387 14.7447 14.9868 14.6471C15.0734 14.454 15.0734 14.454 15.057 14.1901C13.0219 13.1609 10.866 13.0087 8.85171 14.1901ZM9.85551 15.924C9.90961 16.2335 10.0168 16.3995 10.2262 16.6312C10.2762 16.6872 10.3262 16.7432 10.3777 16.8009C10.4162 16.8427 10.4547 16.8846 10.4943 16.9278C10.6035 16.8826 10.7126 16.8374 10.8251 16.7909C11.6941 16.503 12.5793 16.5822 13.4144 16.9278C13.5214 16.7951 13.6278 16.6619 13.7338 16.5285C13.7931 16.4544 13.8524 16.3803 13.9135 16.3039C14.0708 16.122 14.0708 16.122 14.0532 15.924C13.8805 15.8493 13.7074 15.7753 13.5342 15.7015C13.4379 15.6602 13.3415 15.6189 13.2423 15.5764C12.1164 15.1455 10.9004 15.3664 9.85551 15.924ZM11.0418 17.5665C11.2087 17.8633 11.3952 18.1412 11.5951 18.4163C11.6413 18.48 11.6875 18.5436 11.7351 18.6092C11.7774 18.6566 11.8196 18.704 11.8631 18.7529C11.9233 18.7529 11.9836 18.7529 12.0456 18.7529C12.1938 18.5731 12.3318 18.3939 12.4677 18.2053C12.506 18.1531 12.5444 18.1009 12.5839 18.0471C12.6788 17.9177 12.7729 17.7878 12.8669 17.6578C12.8368 17.5976 12.8067 17.5373 12.7757 17.4753C12.4844 17.3782 12.266 17.3688 11.9601 17.3669C11.8651 17.3656 11.7702 17.3643 11.6724 17.363C11.4114 17.3837 11.263 17.4317 11.0418 17.5665Z" fill="url(#LinearGradient)" fill-rule="nonzero" opacity="1" stroke="none"/>
<path d="M9.49049 9.80989C9.8822 9.94978 10.0398 10.172 10.2205 10.5399C10.3162 11.0639 10.2851 11.5097 10.0095 11.9715C9.65258 12.4457 9.17522 12.7916 8.6692 13.0951C8.60897 13.0951 8.54875 13.0951 8.48669 13.0951C8.33649 12.7947 8.31003 12.5031 8.39544 12.1825C8.56544 12.0192 8.74693 11.9007 8.94332 11.7708C9.25183 11.5408 9.32096 11.3745 9.39924 10.9962C9.31232 10.7289 9.18737 10.5011 9.03422 10.2662C9.18479 10.1156 9.33536 9.96502 9.49049 9.80989Z" fill="url(#LinearGradient_2)" fill-rule="nonzero" opacity="1" stroke="none"/>
<path d="M15.3308 9.90114C15.5927 9.99606 15.6844 10.0643 15.8281 10.3082C15.8654 10.396 15.9026 10.4837 15.9411 10.5741C15.9791 10.6614 16.0171 10.7487 16.0562 10.8386C16.2214 11.2674 16.2537 11.6059 16.249 12.0684C16.2482 12.1753 16.2474 12.2821 16.2466 12.3921C16.2455 12.4735 16.2444 12.5549 16.2433 12.6388C15.7186 12.4791 15.7186 12.4791 15.5133 12.2738C15.468 12.1059 15.429 11.9364 15.3935 11.7662C15.2698 11.2375 15.0745 10.8132 14.7833 10.3574C14.964 10.2068 15.1446 10.0563 15.3308 9.90114Z" fill="url(#LinearGradient_3)" fill-rule="nonzero" opacity="1" stroke="none"/>
<path d="M12.5932 16.654C12.7759 16.6831 12.9584 16.7137 13.1407 16.7452C13.2395 16.7565 13.2395 16.7565 13.3403 16.7681C13.5909 16.8718 13.6594 17.0587 13.7795 17.2928C13.6289 17.4735 13.4783 17.6541 13.3232 17.8403C13.0221 17.6897 12.7209 17.5392 12.4106 17.384C12.4709 17.1431 12.5311 16.9022 12.5932 16.654Z" fill="url(#LinearGradient_4)" fill-rule="nonzero" opacity="1" stroke="none"/>
</g>
</g>
</svg>
