<svg version="1.1" xmlns="http://www.w3.org/2000/svg" style="display: block;" viewBox="0 0 2048 2048" width="2048" height="2048" preserveAspectRatio="none">
<defs>
	<linearGradient id="Gradient1" gradientUnits="userSpaceOnUse" x1="1010.57" y1="1707.06" x2="1010.23" y2="1734.99">
		<stop class="stop0" offset="0" stop-opacity="1" stop-color="rgb(114,109,150)"/>
		<stop class="stop1" offset="1" stop-opacity="1" stop-color="rgb(132,132,177)"/>
	</linearGradient>
	<linearGradient id="Gradient2" gradientUnits="userSpaceOnUse" x1="1635.05" y1="1045.2" x2="1558.89" y2="1002.45">
		<stop class="stop0" offset="0" stop-opacity="1" stop-color="rgb(194,214,255)"/>
		<stop class="stop1" offset="1" stop-opacity="1" stop-color="rgb(209,234,255)"/>
	</linearGradient>
	<linearGradient id="Gradient3" gradientUnits="userSpaceOnUse" x1="1600.06" y1="925.707" x2="1478.85" y2="1130.93">
		<stop class="stop0" offset="0" stop-opacity="1" stop-color="rgb(83,65,107)"/>
		<stop class="stop1" offset="1" stop-opacity="1" stop-color="rgb(104,95,137)"/>
	</linearGradient>
	<linearGradient id="Gradient4" gradientUnits="userSpaceOnUse" x1="1551.1" y1="521.109" x2="1206.98" y2="317.984">
		<stop class="stop0" offset="0" stop-opacity="1" stop-color="rgb(120,121,163)"/>
		<stop class="stop1" offset="1" stop-opacity="1" stop-color="rgb(171,181,231)"/>
	</linearGradient>
	<linearGradient id="Gradient5" gradientUnits="userSpaceOnUse" x1="1003.78" y1="128.508" x2="673.735" y2="928.21">
		<stop class="stop0" offset="0" stop-opacity="1" stop-color="rgb(168,175,231)"/>
		<stop class="stop1" offset="1" stop-opacity="1" stop-color="rgb(208,231,255)"/>
	</linearGradient>
	<linearGradient id="Gradient6" gradientUnits="userSpaceOnUse" x1="1119.07" y1="860.285" x2="1033.67" y2="702.166">
		<stop class="stop0" offset="0" stop-opacity="1" stop-color="rgb(121,123,164)"/>
		<stop class="stop1" offset="1" stop-opacity="1" stop-color="rgb(172,184,233)"/>
	</linearGradient>
	<linearGradient id="Gradient7" gradientUnits="userSpaceOnUse" x1="923.063" y1="882.401" x2="766.056" y2="666.653">
		<stop class="stop0" offset="0" stop-opacity="1" stop-color="rgb(149,156,209)"/>
		<stop class="stop1" offset="1" stop-opacity="1" stop-color="rgb(207,225,255)"/>
	</linearGradient>
	<linearGradient id="Gradient8" gradientUnits="userSpaceOnUse" x1="931.739" y1="530.352" x2="1103.09" y2="1463.9">
		<stop class="stop0" offset="0" stop-opacity="1" stop-color="rgb(72,48,91)"/>
		<stop class="stop1" offset="1" stop-opacity="1" stop-color="rgb(96,84,126)"/>
	</linearGradient>
	<linearGradient id="Gradient9" gradientUnits="userSpaceOnUse" x1="510.405" y1="985.381" x2="478.385" y2="935.353">
		<stop class="stop0" offset="0" stop-opacity="1" stop-color="rgb(184,196,251)"/>
		<stop class="stop1" offset="1" stop-opacity="1" stop-color="rgb(209,237,255)"/>
	</linearGradient>
	<linearGradient id="Gradient10" gradientUnits="userSpaceOnUse" x1="440.319" y1="934.221" x2="572.604" y2="1118.17">
		<stop class="stop0" offset="0" stop-opacity="1" stop-color="rgb(79,59,102)"/>
		<stop class="stop1" offset="1" stop-opacity="1" stop-color="rgb(99,87,129)"/>
	</linearGradient>
</defs>
<path transform="translate(0,0)" fill="rgb(131,130,175)" d="M 615.745 289.481 L 1190.55 288.941 L 1349.57 288.813 C 1392.07 288.765 1433.83 286.434 1475.61 294.267 C 1534.1 305.589 1588.74 331.611 1634.4 369.883 C 1703.22 428.347 1743.65 512.733 1750.47 602.299 C 1752.37 627.251 1751.73 650.523 1751.7 675.504 L 1751.63 780.819 L 1751.49 1103.92 L 1751.93 1329.35 C 1752 1372.4 1754.43 1434.08 1747.17 1474.08 C 1736.26 1534.85 1709.48 1591.65 1669.54 1638.73 C 1608.44 1709.98 1524.31 1755.19 1430.25 1762.46 L 1428.66 1762.57 C 1416.87 1763.34 1394.44 1762.57 1382.04 1762.55 L 1286.29 1762.4 L 997.771 1762.15 L 731.726 1762.27 L 662.399 1762.58 C 633.893 1762.79 611.86 1763.82 583.367 1758.85 C 524.134 1748.52 462.271 1719.23 417.073 1679.48 C 346.669 1618.34 303.369 1531.79 296.662 1438.79 C 295.489 1420.16 296.119 1396.91 296.161 1378.02 L 296.249 1280.1 L 296.546 956.982 L 296.164 728.263 C 296.034 675.517 293.457 621.357 301.568 569.3 C 325.945 412.842 458.544 298.594 615.745 289.481 z"/>
<path transform="translate(0,0)" fill="rgb(87,71,113)" d="M 1035.03 301.936 C 1029.69 301.475 1015.77 301.849 1012.74 300.723 C 1017.44 299.098 1025.21 299.796 1030.88 299.521 C 1100.46 296.156 1171.44 297.5 1241.21 297.489 L 1350.66 297.473 C 1394.84 297.282 1447.61 293.846 1490.34 308.118 C 1492.19 309.245 1492.87 308.553 1494.84 308.491 C 1501.15 308.291 1508.07 313.012 1513.99 315.196 C 1538.47 324.227 1559.02 334.638 1581.47 348.214 C 1595 356.392 1612.95 363.147 1624.62 375.425 C 1633.64 385.892 1649.04 399.836 1657.19 410.14 C 1670.39 426.837 1693.78 455.663 1701.71 474.956 C 1703.39 475.65 1704.92 476.37 1706.42 477.4 C 1706.42 493.243 1718.43 506.236 1722.42 522.39 C 1727.18 541.607 1730.99 564.184 1736.22 583.407 C 1737.74 588.996 1736.31 602.866 1737.99 609.507 C 1738.73 620.091 1737 629.277 1740.52 639.39 C 1741.73 642.852 1738.72 652.983 1738.64 658.587 C 1738.07 693.353 1738.11 728.126 1738.75 762.89 C 1738.9 771.179 1737.94 779.334 1737.84 787.585 C 1737.8 790.633 1742.35 794.224 1741.17 798.125 L 1739.95 798.269 C 1739.28 796.371 1739.15 794.812 1737.84 793.812 C 1738.18 818.904 1738.63 844.761 1736.96 869.826 C 1736.82 871.938 1738.59 875.961 1739.53 877.92 L 1736.49 881.575 C 1738.47 885.808 1739.38 885.118 1739.09 888.922 C 1736.68 892.392 1737 890.62 1737.38 894.252 C 1738.1 895.262 1738.82 896.273 1739.53 897.283 C 1739.15 900.051 1738.94 902.842 1738.57 905.612 C 1737.4 914.532 1738 923.465 1737.76 932.433 C 1737.51 941.522 1737.35 950.691 1736.9 959.78 C 1736.86 960.764 1738.95 961.656 1739.55 961.969 C 1738.59 967.857 1736.07 966.895 1736.84 974.381 C 1737.27 978.591 1738.73 1012.64 1738.5 1013.07 L 1736.34 1011.2 C 1736.5 1012.51 1736.93 1024.44 1735.84 1022.29 C 1737.39 1025.34 1741.63 1032.01 1739.66 1035.28 L 1738.33 1034.4 L 1737.68 1029.88 L 1736.57 1029.1 C 1736.48 1034.85 1736.21 1033.75 1739.11 1038.51 L 1739.87 1039.73 C 1739.85 1043.41 1739.64 1042.15 1738.3 1044.73 C 1732.14 1056.54 1742.91 1071.93 1737.29 1081.88 C 1735.48 1085.07 1735.61 1086.25 1736.02 1089.13 C 1739.51 1093.32 1739.27 1091.77 1739.46 1096.25 L 1737.74 1093.48 L 1736.03 1093.87 C 1735.8 1095.34 1734.71 1105.99 1734.71 1107.12 L 1736.32 1107.86 L 1735.1 1109.49 C 1736.18 1108.53 1737.08 1105.93 1737.75 1104.42 C 1739.73 1106.31 1740.16 1129.06 1736.33 1130.95 C 1735.9 1131.38 1735.47 1131.8 1735.04 1132.23 C 1735.46 1135.24 1738.54 1138.06 1738.53 1138.29 C 1736.86 1159.45 1732.34 1175.97 1739.17 1196.47 C 1739.01 1197.3 1736.73 1207.48 1736.54 1206.91 C 1738.96 1214.07 1742.67 1210.57 1737.23 1218.09 L 1737.79 1219.59 C 1738.44 1221.36 1738.74 1222.36 1739.22 1224.15 L 1738.11 1225.32 L 1736.29 1225.36 C 1736.55 1238.39 1740.44 1249.37 1739.37 1262.49 L 1738.58 1262.66 L 1737.58 1260.05 L 1736.75 1260.28 C 1735.94 1270.79 1738.15 1280.3 1737.84 1288.92 C 1737.49 1298.73 1734.83 1305.12 1735.75 1316.73 L 1738.46 1319.35 L 1738.41 1321.5 L 1737.18 1320.24 L 1735.59 1321.83 L 1736.2 1319.86 C 1735.58 1322.02 1735.45 1322.59 1735.77 1324.81 L 1739.16 1326.98 L 1739.34 1328.24 L 1737.17 1328.89 C 1734.68 1333.77 1738.21 1341.93 1737.91 1342.51 C 1732.28 1353.5 1736.5 1354.36 1738.34 1363.5 C 1740.05 1372.03 1733.87 1392.12 1735.09 1400.5 L 1736.54 1395.69 C 1738.15 1397.28 1739.8 1405.46 1738.8 1407.8 L 1737.52 1407.19 L 1739.37 1406.95 L 1737.99 1407.51 L 1736.84 1406.65 L 1734.82 1407.15 L 1735.13 1407.1 C 1734.4 1417.67 1741.98 1429.39 1735.76 1439.31 C 1733.36 1443.14 1731.88 1446.07 1733.67 1450.48 L 1736.43 1449.3 C 1738.64 1452.87 1738.63 1453.2 1739.55 1457.38 L 1738.52 1457.66 L 1737.12 1453.42 L 1736.23 1453.55 C 1735.66 1458.66 1737.06 1467.13 1735.57 1469.4 C 1732.19 1474.59 1732.91 1487.34 1729.52 1490.71 L 1727.76 1490.62 L 1726.34 1492.66 C 1728.29 1494.26 1728.74 1494.57 1729.54 1496.97 C 1726.87 1501.81 1723.64 1504.95 1725.56 1510.34 L 1722.67 1513 C 1723.94 1514.93 1724.02 1514.98 1725.72 1516.56 C 1723.04 1522.05 1715.44 1528.45 1712.58 1535.55 L 1713.6 1536.75 C 1715.99 1535.28 1715.9 1532.6 1718.47 1529.14 C 1718.82 1539.92 1713.12 1543.24 1707.64 1550.17 C 1709.31 1550.8 1708.42 1550.58 1710.33 1550.8 C 1710.03 1554.87 1704.68 1561.23 1701.99 1564.38 L 1701.72 1560.99 L 1700.47 1560.63 C 1699.29 1563.75 1698.34 1568.16 1696.02 1569.51 L 1693.29 1569.44 L 1692.41 1570.79 L 1696.8 1571.34 C 1699.14 1569.27 1699.8 1568.93 1701.49 1566.25 C 1701.06 1568.91 1694.48 1579.09 1692.65 1580.66 C 1692.16 1578 1692.9 1577.69 1694.13 1574.69 C 1691.34 1577.25 1688.84 1578.9 1687.76 1582.42 L 1688.28 1583.45 C 1688.86 1584.61 1689.24 1585.45 1689.73 1586.63 C 1686.6 1590.41 1683.68 1594.03 1680.29 1597.59 C 1680.96 1600.09 1680.4 1598.93 1682.55 1600.8 C 1682.46 1606.71 1679.57 1616.93 1673.29 1618.47 C 1672.95 1616.74 1672.73 1615.61 1672.52 1613.85 C 1668.66 1616.44 1666.49 1616.07 1663.13 1619.68 L 1660.59 1627.7 L 1659.23 1628.37 C 1647.05 1634.39 1655.02 1634.74 1648.8 1641.47 C 1646.51 1642.13 1646.45 1642.17 1644.08 1642.24 C 1638.4 1648.17 1632.2 1655.83 1627.07 1661.27 C 1622.31 1666.32 1609.58 1666.77 1606.69 1676.16 C 1604.71 1682.6 1582.09 1697.86 1576.14 1700.46 C 1573.47 1701.62 1564.41 1699.8 1558.27 1707.44 C 1559.58 1709.17 1558.76 1708.42 1560.8 1709.61 C 1555.88 1713.78 1534.1 1713.23 1531.15 1722.24 C 1528.87 1723.16 1527.47 1722.75 1524.97 1722.53 L 1523.86 1723.46 C 1525.33 1724.6 1525.93 1724.56 1526.09 1725.7 C 1524.35 1726.21 1520.36 1727.23 1518.69 1726.8 C 1511.2 1724.89 1499.9 1740.87 1494.11 1735.2 C 1486.47 1738.06 1473.58 1742.37 1465.21 1744.15 C 1461.61 1744.92 1456.95 1742.11 1448.27 1744.61 C 1432.46 1749.16 1405.43 1752.51 1389.18 1750.04 C 1388.89 1750 1384.72 1748.62 1384.3 1748.48 L 1384.37 1749.49 L 1385.78 1750.54 C 1381.08 1750.3 1375.51 1748.78 1371.51 1750.72 L 1372.64 1751.4 C 1363.95 1753.26 1331.64 1751.46 1320.45 1751.54 C 1301.12 1751.67 1280.15 1753.45 1261.07 1751.76 C 1254.31 1751.16 1235.63 1753.56 1232.36 1751.8 C 1225.19 1747.95 1177.18 1754.13 1174.86 1751.12 L 1177.06 1750.49 L 1176.92 1748.48 L 1170.95 1747.17 L 1169.97 1748.52 L 1168.02 1746.93 C 1168.38 1747.62 1171.9 1749.61 1172.86 1750.21 C 1166.24 1750.31 1159.15 1750.33 1152.56 1749.94 C 1152.26 1749.06 1151.95 1748.18 1151.65 1747.31 C 1144.71 1749.34 1149.04 1753.27 1141.82 1751.28 C 1133.71 1749.04 1122.25 1748.5 1113.63 1747.78 C 1111.64 1749.49 1110.6 1750.4 1108.77 1752.35 L 1103.25 1752.4 C 1099.61 1753.5 1078.94 1753.57 1074.74 1752.94 L 1072.45 1752.04 C 1069 1752.73 1067.91 1752.34 1064.49 1751.78 L 1068.54 1751.28 C 1063 1750 1050.95 1751.35 1044.31 1750.64 C 1032.84 1749.42 1028.56 1748.13 1016.59 1748.55 C 1017.48 1751.24 1021.38 1748.59 1024.92 1752.42 C 1021.99 1752.42 1016.37 1753.04 1014.67 1751.55 C 1015.31 1750.8 1014.98 1751.33 1015.15 1749.76 C 1011.68 1749.04 1002.05 1754.21 997.933 1751.97 L 999.421 1750.63 L 999.368 1749.42 C 996.975 1750.19 994.574 1750.62 992.802 1752.48 L 990.334 1751.5 C 987.884 1752.37 987.803 1752.55 985.251 1752.58 C 987.375 1750.33 987.922 1749.91 990.733 1748.62 C 986.456 1748.1 978.908 1749.73 974.911 1751.42 L 973.438 1750.38 L 973.676 1750.11 L 973.473 1752.02 L 972.744 1751.43 L 974.605 1748.98 L 974.079 1748.36 C 967.373 1750.19 955.045 1752.45 947.632 1750.76 C 946.413 1750.48 945.886 1747.6 942.464 1747.52 L 944.526 1750.34 L 944.025 1751.68 C 936.148 1753.37 926.777 1750.62 918.605 1748.98 C 916.568 1751.02 916.712 1750.96 914.123 1752.19 L 912.021 1751.42 L 913.845 1749.9 L 911.77 1747.75 C 908.484 1747.21 910.119 1747.29 906.596 1748.55 L 908.713 1749.5 L 908.363 1750.24 L 903.832 1751.01 C 907.376 1751.28 907.862 1750.93 910.947 1752.42 C 900.326 1752.74 890.573 1750.57 880.372 1750.63 C 860.16 1750.76 841.713 1751.76 821.457 1750.54 L 822.011 1750.38 C 816.664 1750.6 804.512 1752.47 801.185 1752.03 L 802.127 1750.74 C 807.235 1749.55 811.136 1749.16 816.295 1748.58 L 816.451 1747.85 C 813.182 1747.52 774.787 1753.45 770.438 1754.14 L 773.189 1753.23 L 773.659 1751.89 C 766.047 1750.75 733.329 1751.45 724.026 1751.46 L 728.044 1748.08 L 727.708 1747.46 C 726.395 1747.92 720.596 1750.95 720.009 1750.94 C 703.75 1750.84 688.592 1751.76 673.063 1747.81 C 669.827 1746.99 657.108 1752.38 647.971 1750.84 C 633.966 1748.5 615.754 1751 601.198 1747.9 C 593.648 1746.65 594.766 1748.68 588.163 1744.3 L 586.702 1746.13 C 581.609 1747.52 575.746 1739.55 571.994 1739.07 L 574.726 1744.13 L 574.024 1745.47 C 570.295 1745.48 570.54 1745.57 567.208 1743.94 C 566.245 1740.66 566.1 1742.09 567.353 1738.93 L 568.022 1737.29 C 564.914 1738.72 565.008 1739.1 561.747 1739.12 C 556.549 1734.55 555.125 1736.83 549.276 1733.72 L 550.542 1732.36 C 547.809 1730.26 546.824 1729.72 543.853 1731.51 L 543.497 1733.5 L 545.123 1735.17 C 549.417 1736.08 547.409 1736.25 551.386 1734.91 L 551.945 1735.89 L 550.888 1736.6 C 548.895 1736.6 542.548 1734.23 540.357 1733.49 L 539.549 1735.25 C 537.086 1732.04 538.612 1732.9 535.18 1732 L 535.55 1734.52 L 533.964 1734.2 C 531.346 1731.35 529.699 1728.73 526.075 1728.02 C 507.798 1731.49 515.291 1714.34 498.948 1717.35 C 498.231 1717.48 486.179 1707.73 483.715 1706.6 C 481.521 1705.07 471.786 1704.82 470.266 1703.58 C 457.561 1693.18 443.707 1684.28 430.503 1674.63 L 433.224 1673.62 C 433.035 1670.4 433.359 1670.18 431.54 1667.65 C 431.314 1670.05 431.423 1669.94 430.276 1672.03 C 425.958 1670.56 426.088 1670.29 422.424 1667.03 L 421.35 1666.06 C 420.998 1666.95 420.646 1667.85 420.294 1668.74 C 416.945 1662.98 412.955 1657.62 408.401 1652.76 C 405.636 1652.05 405.067 1652.01 402.566 1650.72 C 402.378 1645.82 403.33 1651.52 406.341 1648.11 C 403.252 1646.85 403.308 1646.88 400.674 1644.83 C 398.461 1639.87 403.702 1636.05 399.92 1632.54 L 398.478 1636.43 C 399.421 1639.42 399.598 1639.3 399.094 1642.33 C 396.665 1641.96 394.004 1637.69 391.75 1635.72 C 387.905 1632.37 391.008 1630.11 386.58 1625.23 L 385.921 1625.66 C 386.466 1628.33 386.958 1629.07 386.44 1631.59 C 385.216 1628.31 384.075 1624.99 383.018 1621.65 C 371.368 1613.87 371.009 1612.26 364.996 1600.08 L 367.339 1600.82 C 368.924 1597.9 352.566 1584.51 352.778 1582.35 C 353.97 1570.23 339.626 1559.7 337.348 1549.75 L 341.51 1554.18 L 342.385 1553.97 C 340.903 1548.16 335.222 1543.77 334.454 1539.37 L 336.11 1539.63 L 336.654 1539 C 333.238 1531.87 325.826 1527.22 324.471 1519.55 L 327.299 1519.47 C 326.544 1517.87 321.939 1509.33 321.75 1508.42 C 320.329 1501.57 312.542 1471.79 312.498 1466.97 L 313.425 1466.41 C 309.216 1457.37 304.051 1381.69 308.658 1374.89 C 309.062 1368.84 308.092 1365.96 310.467 1359.51 C 311.998 1355.34 308.032 1346.25 308.602 1341.63 C 308.809 1339.94 311.198 1341.38 311.713 1336.58 L 309.089 1338.61 L 308.433 1337.46 C 309.322 1329.11 317.637 1329.39 312.644 1316.92 C 311.519 1314.11 309.153 1303.43 308.641 1300.47 C 310.388 1300.48 309.628 1300.48 311.51 1301.75 C 311.733 1292.7 310.01 1291.46 308.856 1283.22 C 308.385 1279.86 311.431 1275.6 311.443 1270.06 L 309.608 1273.11 C 308.414 1270.68 308.584 1268.11 308.45 1265.34 L 309.261 1264.7 L 310.857 1266.24 L 311.496 1265.47 C 311.802 1260.53 312.673 1251.21 311.694 1246.56 C 310.508 1240.93 307.471 1222.16 309.258 1217.11 L 311.319 1219.73 L 312.285 1218.49 C 312.406 1209.92 311.287 1205.95 310.579 1197.84 C 310.029 1191.53 314.251 1180.44 313.321 1173.44 C 312.872 1170.07 310.695 1169.12 309.045 1166.29 C 308.888 1159.01 311.1 1148.96 311.752 1141.79 C 312.642 1131.98 311.857 1121.63 311.396 1111.97 L 310.552 1116.35 C 308.767 1115.7 309.591 1116.06 308.219 1113.8 C 307.983 1107.57 314.353 1105.28 311.942 1100.49 C 309.443 1095.68 310.799 1089.65 311.722 1084.15 C 313.961 1070.79 310.57 1058.95 310.2 1045.79 C 317.274 1034.46 308.225 989.649 308.66 977.53 C 310.348 975.46 310.984 975.152 311.567 972.626 L 309.78 974.039 L 308.668 973.547 C 308.531 969.289 307.772 969.016 309.672 966.211 C 310.118 968.334 310.061 968.082 310.829 970.048 C 318.683 960.824 303.769 952.794 309.078 936.436 L 310.576 936.345 L 313.208 939.669 L 312.989 940.806 L 313.468 940.728 C 313.018 937.897 312.784 937.805 313.031 935.046 C 311.299 919.938 312.048 903.723 312.111 888.364 C 312.173 873.197 310.59 854.68 311.84 840 C 313.602 831.288 309.699 833.502 310.833 826.234 C 311.759 820.302 313.136 814.629 312.846 808.584 C 302.717 796.148 314.738 794.018 313.728 781.484 L 312.716 781.394 C 311.95 783.547 312.287 782.386 311.726 784.897 C 306.463 783.572 308.084 776.334 309.116 772.34 L 309.819 772.456 C 310.426 775.389 310.534 777.357 312.364 779.717 C 312.443 777.979 313.286 761.247 312.749 759.654 C 308.848 748.074 309.217 737.258 310.247 725.4 C 310.707 720.11 312.332 711.192 310.395 707.637 L 309.521 710.723 L 308.781 710.307 C 308.783 705.595 307.203 684.578 309.623 682.194 C 310.788 685.129 311.243 686.537 313.006 689.235 C 315.093 681.38 307.864 678.948 308.907 672.647 C 311.338 673.416 310.219 673.577 312.364 672.634 C 314.35 667.766 310.977 657.815 309.575 652.518 C 310.289 651.395 312.236 648.037 312.176 646.986 C 311.597 636.935 311.894 625.492 311.969 615.622 L 310.914 616.405 C 311.928 619.007 312.261 621.075 310.474 623.231 L 309.362 622.665 C 307.609 618.078 306.252 612.106 309.842 607.727 C 316.91 599.104 309.9 586.78 310.021 577.088 C 310.042 575.426 313.359 573.469 314.329 572.14 C 315.649 565.289 317.66 556.297 319.109 549.736 C 317.546 546.802 317.523 546.795 316.754 543.571 C 317.854 540.978 318.261 539.219 320.512 537.565 C 320.93 538.557 321.349 539.549 321.768 540.541 C 322.609 537.211 322.182 538.173 320.064 534.069 C 321.458 528.933 322.741 523.499 324.752 518.606 C 325.733 517.951 329.508 515.528 330.039 514.082 C 332.912 506.248 335.081 497.746 338.552 489.982 C 338.143 487.511 337.813 485.526 337.565 484.028 C 338.357 481.974 337.663 482.667 339.508 481.815 L 340.001 485.102 L 341.145 485.282 C 342.993 480.146 344.28 476.314 346.859 471.43 L 347.35 470.52 C 345.582 471.257 346.581 470.935 344.321 471.375 C 345.161 468.648 352.943 460.701 355.469 457.67 C 353.156 458.573 351.181 459.51 348.935 460.544 L 348.444 459.559 C 352.801 451.462 355.57 457.076 360.386 442.7 L 361.005 440.906 C 362.029 437.864 361.274 438.728 363.307 436.69 L 363.252 443.211 L 364.215 443.362 C 375.782 426.595 382.818 414.145 398.394 400.68 C 402.661 396.991 404.819 391.947 411.22 386.71 C 414.355 378.911 430.744 365.912 438.234 360.893 C 441.328 359.783 446.901 354.213 451.061 351.776 C 462.043 345.341 474.012 337.09 485.332 331.462 C 497.363 333.944 513.486 320.806 526.087 317.326 C 532.444 315.571 541.65 313.421 547.564 311.369 C 591.861 295.999 638.239 298.48 684.379 298.462 L 824.939 298.506 L 938.507 298.51 C 950.926 298.488 963.576 298.27 975.967 298.38 C 982.933 298.442 999.438 299.089 1005.81 300.613 C 1003.77 302.814 981.738 300.281 976.369 302.083 C 984.112 302.98 1026.68 302.555 1035.03 301.936 z"/>
<path transform="translate(0,0)" fill="rgb(203,228,255)" d="M 968.927 498.296 C 1006.22 495.879 1052.85 495.545 1090.02 499.702 C 1190.94 510.954 1285.99 552.886 1362.34 619.843 C 1436.28 684.931 1498.43 786.16 1519.4 882.839 L 1520.02 886.121 C 1522.94 894.192 1527.05 913.11 1526.98 921.43 C 1531.41 945.711 1530.29 977.538 1530.3 1002.43 C 1530.32 1057.71 1532.23 1103.53 1520.29 1158.11 C 1518.85 1165.36 1511.53 1192.63 1508.49 1198.97 C 1500.19 1230.7 1483.11 1265.91 1466.99 1294.47 C 1461.42 1304.34 1452.05 1317.67 1447.27 1326.87 C 1378.58 1423.06 1301.83 1485.65 1188.67 1524.24 C 1060.11 1568.56 919.152 1559.56 797.265 1499.26 C 691.514 1447.43 606.902 1360.67 557.73 1253.65 C 550.079 1236.91 542.706 1218.19 536.829 1200.73 C 533.494 1190.83 530.94 1180.29 527.643 1170.36 C 527.454 1169.79 526.001 1166.81 525.773 1166.76 C 520.418 1165.62 512.718 1164.03 507.95 1161.85 C 483.443 1150.65 458.285 1142.33 447.603 1115.04 C 445.187 1108.86 443.162 1100.87 442.865 1094.35 C 441.798 1070.93 442.257 1046.95 442.21 1023.44 C 442.16 998.603 441.341 973.143 442.503 948.404 C 442.833 941.375 444.802 934.377 447.509 927.929 C 455.923 903.209 498.551 887.093 521.455 879.968 C 522.48 879.649 524.13 883.383 524.63 884.257 C 547.083 791.816 594.689 707.396 662.173 640.349 L 661.462 638.648 C 666.959 632.919 672.676 626.619 679.909 623.203 C 683.014 621.871 711.158 598.147 715.663 594.516 C 718.909 592.332 721.21 591.044 723.852 588.202 C 789.664 540.648 874.692 509.066 954.868 500.291 C 958.551 499.888 966.131 499.667 968.927 498.296 z"/>
<path transform="translate(0,0)" fill="url(#Gradient10)" d="M 447.509 927.929 C 455.923 903.209 498.551 887.093 521.455 879.968 C 522.48 879.649 524.13 883.383 524.63 884.257 L 523.794 887.829 L 520.926 900.452 C 520.237 904.092 519.128 908.223 519.351 911.786 L 515.927 914.215 C 518.292 920.452 514.326 923.541 516.755 927.663 C 517.581 932.944 517.997 934.671 515.803 939.706 C 516.161 955.243 515.14 972.961 515.052 988.938 C 514.938 1035.32 513.325 1081.59 518.391 1127.69 C 519.026 1133.47 524.152 1153.13 523.208 1157.02 C 518.903 1158.63 511.97 1155.55 507.851 1153.66 C 477.197 1139.62 453.571 1128.76 450.605 1090.69 C 447.239 1087.05 452.7 956.103 448.547 940.993 C 447.926 938.734 447.481 930.636 447.509 927.929 z"/>
<path transform="translate(0,0)" fill="url(#Gradient9)" d="M 515.927 914.215 C 518.292 920.452 514.326 923.541 516.755 927.663 C 517.581 932.944 517.997 934.671 515.803 939.706 C 516.161 955.243 515.14 972.961 515.052 988.938 C 514.281 989.913 513.511 990.888 512.74 991.862 C 505.645 993.793 469.01 1000.45 464.644 997.804 L 464.098 994.914 C 463.681 989.852 463.306 984.787 462.973 979.718 C 462.178 968.037 459.086 949.259 466.451 940.825 C 485.107 932.248 498.21 924.658 515.927 914.215 z"/>
<path transform="translate(0,0)" fill="rgb(131,130,175)" d="M 512.753 989.509 C 513.122 979.256 512.874 948.177 515.803 939.706 C 516.161 955.243 515.14 972.961 515.052 988.938 C 514.281 989.913 513.511 990.888 512.74 991.862 C 505.645 993.793 469.01 1000.45 464.644 997.804 L 464.098 994.914 L 465.96 995.452 C 472.163 993.84 506.778 989.416 512.753 989.509 z"/>
<path transform="translate(0,0)" fill="rgb(164,173,222)" d="M 447.509 927.929 C 455.923 903.209 498.551 887.093 521.455 879.968 C 522.48 879.649 524.13 883.383 524.63 884.257 L 523.794 887.829 C 516.821 888.041 511.838 890.299 505.501 892.848 C 451.941 914.393 450.691 927.906 451.026 981.227 C 451.172 1007.16 451.111 1033.09 450.845 1059.02 C 450.808 1064.51 451.137 1086.54 450.605 1090.69 C 447.239 1087.05 452.7 956.103 448.547 940.993 C 447.926 938.734 447.481 930.636 447.509 927.929 z"/>
<path transform="translate(0,0)" fill="rgb(87,71,113)" d="M 466.451 940.825 C 465.595 939.84 465.102 938.977 464.383 937.885 C 464.335 923.577 503.333 909.243 514.846 905.775 C 516.834 905.177 517 903.728 517.562 902.026 C 513.691 903.715 510.791 906.139 507.024 905.619 L 507.395 904.618 C 512.176 902.654 516.986 899.313 520.926 900.452 C 520.237 904.092 519.128 908.223 519.351 911.786 L 515.927 914.215 C 498.21 924.658 485.107 932.248 466.451 940.825 z"/>
<path transform="translate(0,0)" fill="rgb(189,204,251)" d="M 1508.49 1198.97 L 1507.11 1198.73 L 1506.69 1199.82 L 1504.92 1200.11 L 1503.1 1198.39 C 1501.84 1191.7 1513.31 1157.73 1514.6 1148.1 C 1515.57 1146.77 1515.44 1130.54 1515.24 1130.67 C 1519.57 1127.66 1518.11 1125.72 1519.58 1117.61 C 1521.74 1109.94 1520.84 1099.21 1522.66 1091.85 C 1525.9 1078.71 1524.88 1068.16 1525.08 1054.65 C 1525.45 1032.64 1525.61 1010.62 1525.56 988.611 C 1525.6 978.871 1525.73 969.142 1525.75 959.394 C 1525.76 947.65 1525.03 935.879 1525.21 924.131 C 1525.8 923.23 1526.39 922.33 1526.98 921.43 C 1531.41 945.711 1530.29 977.538 1530.3 1002.43 C 1530.32 1057.71 1532.23 1103.53 1520.29 1158.11 C 1518.85 1165.36 1511.53 1192.63 1508.49 1198.97 z"/>
<path transform="translate(0,0)" fill="rgb(177,191,239)" d="M 661.462 638.648 C 666.959 632.919 672.676 626.619 679.909 623.203 C 675.95 627.893 667.124 636.112 662.173 640.349 L 661.462 638.648 z"/>
<path transform="translate(0,0)" fill="rgb(189,204,251)" d="M 515.927 914.215 L 519.351 911.786 C 518.75 916.541 518.113 923.254 516.755 927.663 C 514.326 923.541 518.292 920.452 515.927 914.215 z"/>
<path transform="translate(0,0)" fill="url(#Gradient8)" d="M 890.131 545.831 C 899.42 530.809 935.93 517.48 953.169 516.837 C 990.912 515.428 1030.2 515.426 1067.97 517.179 C 1075.29 517.519 1083.4 524.052 1083.75 532.05 C 1086.55 541.562 1087.99 547.996 1077.52 552.555 C 1074.25 555.172 1062.63 555.081 1059.35 553.326 C 1050.06 552.746 1037 552.662 1027.79 552.851 C 1017.87 553.899 1007.68 555.077 998.067 558.331 C 994.866 559.415 982.425 567.364 980.973 567.572 C 957.971 588.487 961.547 591.816 953.386 617.188 C 952.62 627.026 953.425 648.023 960.282 655.149 C 962.785 656.421 978.661 673.368 985.654 678.272 C 994.132 684.217 997.964 684.028 1003.39 687.334 C 1025.56 692.358 1048.25 695.937 1070.38 701.326 C 1080.13 703.698 1116.99 708.966 1112.99 724.153 C 1116.09 731.689 1117.21 735.384 1114.3 743.32 C 1110.1 749.465 1106.39 753.037 1098.78 754.394 C 1097.72 754.581 1096.66 754.736 1095.59 754.859 C 1089.15 756.409 1058.74 755.449 1049.64 755.368 C 981.055 754.757 931.051 751.556 867.318 783.579 C 862.554 785.902 857.848 788.343 853.206 790.9 C 851.618 792.71 841.976 799.143 840.157 799.53 C 835.8 802.851 828.068 808.43 824.348 811.966 C 822.403 813.777 811.185 824.526 809.752 825.468 C 804.854 830.873 799.731 836.74 794.525 841.785 L 793.737 843.224 C 787.919 851.813 782.182 860.456 776.528 869.153 C 775.377 871.942 775.503 872.176 773.474 874.317 C 754.977 910.428 747.311 938.159 746.171 979.368 C 745.774 993.724 746.466 1010.23 745.89 1024.25 C 747.582 1032.79 749.371 1043.9 754.243 1051.21 C 755.047 1051.34 755.85 1051.47 756.654 1051.6 C 791.172 1103.34 860.546 1092.05 873.976 1029.82 C 878.143 1010.51 872.031 951.921 877.747 939.352 C 881.591 910.067 891.94 885.102 914.145 864.974 C 986.083 799.767 1083.6 854.141 1158.61 815.61 C 1175.84 806.757 1192.02 791.013 1199.92 773.174 C 1202.51 767.336 1204.4 756.633 1209.13 752.82 C 1213.38 715.246 1187.38 673.731 1150.79 663.07 C 1135.13 657.369 1114.78 654.315 1098.14 650.151 L 1097.46 649.983 C 1087.48 648.879 1053.75 642.682 1046.03 636.598 C 1040.78 631.575 1039.96 627.905 1040.18 620.865 C 1039.67 620.447 1038.51 619 1038.02 618.434 C 1037.33 612.655 1038.3 608.057 1043.95 605.447 C 1059.54 594.165 1139.61 600.126 1159.53 603.299 C 1166.38 604.397 1173.19 605.698 1179.96 607.199 C 1267.02 631.494 1358.26 708.553 1401.09 787.366 C 1413.33 809.881 1427.15 834.867 1432.25 860.006 C 1431.98 860.938 1431.63 862.417 1431.25 863.245 C 1440.1 893.836 1448.94 924.162 1452.02 955.976 C 1461.88 1057.94 1451.58 1162.58 1401.76 1253.11 C 1347.89 1352.37 1256.11 1425.57 1147.36 1456 C 1036.46 1488.07 911.447 1476 810.164 1420.04 C 732.557 1377.13 670.419 1310.89 632.554 1230.7 C 622.619 1209.87 618.575 1194.57 610.493 1175.08 L 608.023 1173.58 C 583.205 1128.63 585.028 990.917 590.39 937.198 C 592.768 913.373 612.482 844.906 623.835 823.96 C 633.531 805.468 640.973 789.236 652.361 770.982 C 687.843 714.428 736.826 667.583 794.905 634.658 C 807.183 627.546 819.837 621.104 832.811 615.36 C 841.673 611.403 854.23 607.784 862.036 603.028 C 865.688 600.802 863.808 584.236 867.337 577.032 C 873.706 564.027 880.04 556.007 890.131 545.831 z"/>
<path transform="translate(0,0)" fill="url(#Gradient7)" d="M 981.18 536.983 C 998.206 536.776 1070.9 532.996 1080.33 542.32 C 1081.7 543.68 1081.6 544.056 1082.08 545.813 C 1080.88 549.306 1080 549.904 1077.52 552.555 C 1074.25 555.172 1062.63 555.081 1059.35 553.326 C 1050.06 552.746 1037 552.662 1027.79 552.851 C 1017.87 553.899 1007.68 555.077 998.067 558.331 C 994.866 559.415 982.425 567.364 980.973 567.572 C 957.971 588.487 961.547 591.816 953.386 617.188 C 952.62 627.026 953.425 648.023 960.282 655.149 C 962.785 656.421 978.661 673.368 985.654 678.272 C 994.132 684.217 997.964 684.028 1003.39 687.334 C 1025.56 692.358 1048.25 695.937 1070.38 701.326 C 1080.13 703.698 1116.99 708.966 1112.99 724.153 C 1116.09 731.689 1117.21 735.384 1114.3 743.32 C 1110.1 749.465 1106.39 753.037 1098.78 754.394 C 1097.72 754.581 1096.66 754.736 1095.59 754.859 C 1089.15 756.409 1058.74 755.449 1049.64 755.368 C 981.055 754.757 931.051 751.556 867.318 783.579 C 862.554 785.902 857.848 788.343 853.206 790.9 C 851.618 792.71 841.976 799.143 840.157 799.53 C 835.8 802.851 828.068 808.43 824.348 811.966 C 822.403 813.777 811.185 824.526 809.752 825.468 C 804.854 830.873 799.731 836.74 794.525 841.785 L 793.737 843.224 C 787.919 851.813 782.182 860.456 776.528 869.153 C 775.377 871.942 775.503 872.176 773.474 874.317 C 754.977 910.428 747.311 938.159 746.171 979.368 C 745.774 993.724 746.466 1010.23 745.89 1024.25 C 744.138 1014.19 746.421 999.4 744.142 993.394 C 739.893 994.092 725.061 1001.33 720.483 1003.47 C 690.753 1017.36 654.436 1033.52 627.676 1052.39 C 623.287 1041.55 616.625 999.304 609.12 996.661 C 606.582 998.659 606.376 1004.11 605.789 1007.77 L 604.447 1008.02 L 602.726 1006.44 C 603.576 1004.2 606.451 996.505 606.568 994.509 C 607.284 982.359 611.223 926.495 616.816 919.027 C 621.055 895.536 637.743 832.751 650.297 813.017 C 653.679 805.244 659.661 794.897 664.433 787.85 C 666.914 782.27 680.922 762.906 685.146 757.634 C 688.827 752.11 692.959 746.9 697.498 742.056 C 702.376 735.056 720.281 716.598 726.742 710.234 C 758.717 678.743 799.142 652.217 840.307 634.446 C 846.937 631.584 860.175 625.467 867.17 625.503 C 873.482 603.278 878.665 585.713 895.758 568.801 C 919.376 545.432 948.822 536.961 981.18 536.983 z"/>
<path transform="translate(0,0)" fill="rgb(87,71,113)" d="M 950.849 618.805 L 953.386 617.188 C 952.62 627.026 953.425 648.023 960.282 655.149 C 962.785 656.421 978.661 673.368 985.654 678.272 C 994.132 684.217 997.964 684.028 1003.39 687.334 C 1025.56 692.358 1048.25 695.937 1070.38 701.326 C 1080.13 703.698 1116.99 708.966 1112.99 724.153 C 1116.09 731.689 1117.21 735.384 1114.3 743.32 L 1113.19 742.42 C 1100.27 696.541 942.844 745.615 950.849 618.805 z"/>
<path transform="translate(0,0)" fill="rgb(177,191,239)" d="M 1003.39 687.334 C 1025.56 692.358 1048.25 695.937 1070.38 701.326 C 1080.13 703.698 1116.99 708.966 1112.99 724.153 C 1094.76 705.343 1034.84 705.551 1007.71 694.427 C 1004.73 689.491 1004.16 693.486 1003.39 687.334 z"/>
<path transform="translate(0,0)" fill="rgb(189,204,251)" d="M 960.282 655.149 C 962.785 656.421 978.661 673.368 985.654 678.272 C 994.132 684.217 997.964 684.028 1003.39 687.334 C 1004.16 693.486 1004.73 689.491 1007.71 694.427 C 988.216 690.407 968.165 673.261 960.282 655.149 z"/>
<path transform="translate(0,0)" fill="rgb(110,104,146)" d="M 743.508 986.184 C 744.233 953.704 748.245 927.965 760.53 897.369 C 762.543 892.353 768.871 876.326 773.474 874.317 C 754.977 910.428 747.311 938.159 746.171 979.368 C 745.774 993.724 746.466 1010.23 745.89 1024.25 C 744.138 1014.19 746.421 999.4 744.142 993.394 C 739.893 994.092 725.061 1001.33 720.483 1003.47 C 690.753 1017.36 654.436 1033.52 627.676 1052.39 C 623.287 1041.55 616.625 999.304 609.12 996.661 C 606.582 998.659 606.376 1004.11 605.789 1007.77 L 604.447 1008.02 L 602.726 1006.44 C 603.576 1004.2 606.451 996.505 606.568 994.509 C 607.284 982.359 611.223 926.495 616.816 919.027 C 617.314 922.143 615.585 930.432 615.178 933.969 C 613.379 949.62 609.271 966.085 610.927 981.811 C 623.575 996.519 624.105 1037.8 630.34 1041.1 C 636.42 1039.14 638.967 1035.82 644.632 1032.78 L 678.305 1014.78 C 698.437 1003.98 722.04 994.034 743.508 986.184 z"/>
<path transform="translate(0,0)" fill="rgb(203,228,255)" d="M 867.17 625.503 C 873.482 603.278 878.665 585.713 895.758 568.801 C 919.376 545.432 948.822 536.961 981.18 536.983 L 981.597 538.638 C 977.98 540.484 975.699 539.267 971.882 539.565 C 971.77 539.573 971.031 541.811 969.052 542.665 C 960.074 546.542 959.293 548.832 960.164 557.689 L 959.113 559.626 C 956.632 559.264 957.753 559.667 955.722 558.503 L 954.912 559.392 C 950.777 563.847 950.306 564.097 944.356 564.244 L 942.819 565.622 L 942.753 568.146 C 936.557 568.822 935.472 570.198 931.409 567.378 C 930.41 570.075 930.867 571.951 931.134 574.824 L 929.884 576.575 L 928.268 576.215 C 920.326 563.248 909.406 582.944 904.148 578.783 L 904.393 576.317 C 906.615 575.496 906.572 575.806 909.124 575.793 L 909.546 574.644 L 907.747 572.826 C 903.892 573.131 902.404 576.462 900.246 579.617 C 893.975 579.507 895.435 573.769 890.943 576.261 C 891.124 577.784 891.212 579.201 891.194 580.741 L 890.323 581.334 L 889.342 579.585 C 879.279 591.112 887.77 599.131 881.623 602.712 C 880.028 601.292 879.264 600.087 877.508 599.777 C 874.456 608.299 873.256 611.776 880.067 617.199 L 879.16 618.179 L 874.278 617.368 L 873.571 618.181 C 874.181 622.261 874.653 621.462 873.364 624.829 C 871.234 625.991 869.714 626.123 867.17 625.503 z"/>
<path transform="translate(0,0)" fill="rgb(203,228,255)" d="M 664.433 787.85 L 667.194 790.444 L 667.014 791.964 C 662.73 794.176 662.762 793.227 661.538 796.576 L 664.377 796.701 C 667.163 800.849 668.688 801.415 668.135 805.412 C 664.854 809.039 655.094 812.362 650.297 813.017 C 653.679 805.244 659.661 794.897 664.433 787.85 z"/>
<path transform="translate(0,0)" fill="rgb(131,130,175)" d="M 950.849 618.805 C 952.695 603.93 964.775 570.771 980.973 567.572 C 957.971 588.487 961.547 591.816 953.386 617.188 L 950.849 618.805 z"/>
<path transform="translate(0,0)" fill="rgb(203,228,255)" d="M 685.146 757.634 C 688.827 752.11 692.959 746.9 697.498 742.056 C 698.741 749.909 692.47 755.992 685.146 757.634 z"/>
<path transform="translate(0,0)" fill="rgb(131,130,175)" d="M 1027.79 552.851 C 1033.47 549.24 1053.37 550.764 1060.27 551.938 L 1061.31 552.834 L 1059.35 553.326 C 1050.06 552.746 1037 552.662 1027.79 552.851 z"/>
<path transform="translate(0,0)" fill="rgb(131,130,175)" d="M 776.528 869.153 C 776.591 863.714 788.809 844.682 793.737 843.224 C 787.919 851.813 782.182 860.456 776.528 869.153 z"/>
<path transform="translate(0,0)" fill="rgb(110,104,146)" d="M 1095.59 754.859 C 1104.75 749.126 1105 752.974 1113.19 742.42 L 1114.3 743.32 C 1110.1 749.465 1106.39 753.037 1098.78 754.394 C 1097.72 754.581 1096.66 754.736 1095.59 754.859 z"/>
<path transform="translate(0,0)" fill="rgb(131,130,175)" d="M 824.348 811.966 C 825.017 807.368 835.362 799.277 840.157 799.53 C 835.8 802.851 828.068 808.43 824.348 811.966 z"/>
<path transform="translate(0,0)" fill="rgb(110,104,146)" d="M 794.525 841.785 C 795.401 837.501 805.301 826.587 809.752 825.468 C 804.854 830.873 799.731 836.74 794.525 841.785 z"/>
<path transform="translate(0,0)" fill="rgb(131,130,175)" d="M 853.206 790.9 C 857.028 784.762 860.17 782.106 867.318 783.579 C 862.554 785.902 857.848 788.343 853.206 790.9 z"/>
<path transform="translate(0,0)" fill="url(#Gradient6)" d="M 1165.61 624.557 C 1195.59 628.704 1247.58 654.247 1273.76 670.42 C 1284 676.752 1303.15 692.641 1311.72 701.695 C 1283.33 730.96 1252.81 775.2 1221.84 801.941 C 1159.47 855.793 1068.02 892.942 991.168 921.362 C 983.505 924.196 971.636 926.726 963.212 929.411 C 943.994 935.538 908.909 947.055 889.824 949.071 L 888.589 948.404 C 886.63 934.754 898.842 909.571 907.119 898.566 C 929.464 868.854 959.397 854.973 995.512 849.817 C 1062.76 840.217 1149.52 867.727 1196.57 804.253 C 1212.17 783.214 1216.55 761.235 1212.52 735.537 C 1208.82 711.122 1195.48 689.209 1175.5 674.698 C 1168.15 669.439 1160.43 665.487 1152.15 661.953 C 1149.62 660.694 1146.15 659.606 1143.41 658.638 C 1146.02 654.73 1148.3 656.753 1153.04 652.842 C 1153.03 650.503 1153.03 648.164 1153.06 645.824 C 1154.93 643.191 1153.77 643.732 1156.19 643.148 L 1156.18 646.008 C 1159.09 643.232 1162.26 639.652 1166.38 639.875 L 1168.2 643.115 L 1169.93 642.219 C 1172.94 635.504 1171.72 628.829 1165.61 624.557 z"/>
<path transform="translate(0,0)" fill="rgb(177,191,239)" d="M 1046.38 635.149 C 1045.51 631.732 1045.59 631.949 1046.11 628.431 C 1048.2 625.108 1049.95 623.463 1053.76 622.158 C 1071.14 616.205 1152.94 618.769 1165.61 624.557 C 1171.72 628.829 1172.94 635.504 1169.93 642.219 L 1168.2 643.115 L 1166.38 639.875 C 1162.26 639.652 1159.09 643.232 1156.18 646.008 L 1156.19 643.148 C 1153.77 643.732 1154.93 643.191 1153.06 645.824 C 1153.03 648.164 1153.03 650.503 1153.04 652.842 C 1148.3 656.753 1146.02 654.73 1143.41 658.638 C 1146.15 659.606 1149.62 660.694 1152.15 661.953 L 1150.79 663.07 C 1135.13 657.369 1114.78 654.315 1098.14 650.151 L 1097.46 649.983 C 1087.48 648.879 1053.75 642.682 1046.03 636.598 L 1046.38 635.149 z"/>
<path transform="translate(0,0)" fill="rgb(131,130,175)" d="M 1046.38 635.149 C 1062.12 642.967 1092.44 645.599 1097.46 649.983 C 1087.48 648.879 1053.75 642.682 1046.03 636.598 L 1046.38 635.149 z"/>
<path transform="translate(0,0)" fill="rgb(131,130,175)" d="M 1098.14 650.151 C 1102.43 648.483 1137.08 656.644 1143.41 658.638 C 1146.15 659.606 1149.62 660.694 1152.15 661.953 L 1150.79 663.07 C 1135.13 657.369 1114.78 654.315 1098.14 650.151 z"/>
<path transform="translate(0,0)" fill="rgb(164,173,222)" d="M 890.131 545.831 C 900.025 540.138 909.49 531.399 920.378 526.895 C 927.288 524.036 944.92 517.93 952.005 519.28 L 950.934 521.49 C 952.568 523.13 956.873 523.409 960.152 524.369 C 927.35 528.701 902.613 540.362 881.769 566.997 C 870.382 581.549 866.958 594.784 863.025 612.432 C 754.399 650.672 681.108 723.927 630.608 825.899 C 627.945 824.82 629.298 824.918 626.448 826.089 L 623.835 823.96 C 633.531 805.468 640.973 789.236 652.361 770.982 C 687.843 714.428 736.826 667.583 794.905 634.658 C 807.183 627.546 819.837 621.104 832.811 615.36 C 841.673 611.403 854.23 607.784 862.036 603.028 C 865.688 600.802 863.808 584.236 867.337 577.032 C 873.706 564.027 880.04 556.007 890.131 545.831 z"/>
<path transform="translate(0,0)" fill="rgb(177,191,239)" d="M 1209.13 752.82 C 1207.96 774.067 1196.37 793.898 1180.76 807.883 C 1105.68 875.159 974.854 790.567 902.49 888.549 C 894.923 898.794 890.071 910.092 886.013 922.104 C 884.732 925.894 884.011 930.677 882.274 934.199 L 881.57 933.95 C 880.774 937.007 880.037 939.559 879.071 942.569 L 878.246 942.628 L 877.747 939.352 C 881.591 910.067 891.94 885.102 914.145 864.974 C 986.083 799.767 1083.6 854.141 1158.61 815.61 C 1175.84 806.757 1192.02 791.013 1199.92 773.174 C 1202.51 767.336 1204.4 756.633 1209.13 752.82 z"/>
<path transform="translate(0,0)" fill="rgb(177,191,239)" d="M 1179.96 607.199 C 1267.02 631.494 1358.26 708.553 1401.09 787.366 C 1413.33 809.881 1427.15 834.867 1432.25 860.006 C 1431.98 860.938 1431.63 862.417 1431.25 863.245 C 1427.69 855.985 1424.47 846.445 1421.26 838.653 C 1414.87 822.863 1407.41 807.53 1398.91 792.763 C 1351.18 711.322 1267.87 637.703 1175.35 613.795 L 1174.93 611.016 C 1177.12 607.737 1175.75 609.202 1179.96 607.199 z"/>
<path transform="translate(0,0)" fill="rgb(177,191,239)" d="M 623.835 823.96 L 626.448 826.089 C 629.298 824.918 627.945 824.82 630.608 825.899 C 591.406 917.418 584.172 1008.99 595.887 1107.85 C 598.741 1131.93 605.698 1151.98 610.493 1175.08 L 608.023 1173.58 C 583.205 1128.63 585.028 990.917 590.39 937.198 C 592.768 913.373 612.482 844.906 623.835 823.96 z"/>
<path transform="translate(0,0)" fill="rgb(189,204,251)" d="M 877.747 939.352 L 878.246 942.628 L 879.071 942.569 C 880.037 939.559 880.774 937.007 881.57 933.95 L 882.274 934.199 C 879.999 951.736 879.193 966.107 879.221 984.251 C 879.277 1020.14 884.067 1051.46 853.011 1077.12 C 840.337 1087.59 820.284 1091.76 804.192 1089.51 C 787.248 1087.03 771.995 1077.89 761.825 1064.11 C 758.605 1059.81 756.501 1056.11 754.243 1051.21 C 755.047 1051.34 755.85 1051.47 756.654 1051.6 C 791.172 1103.34 860.546 1092.05 873.976 1029.82 C 878.143 1010.51 872.031 951.921 877.747 939.352 z"/>
<path transform="translate(0,0)" fill="rgb(189,204,251)" d="M 890.131 545.831 C 899.42 530.809 935.93 517.48 953.169 516.837 C 990.912 515.428 1030.2 515.426 1067.97 517.179 C 1075.29 517.519 1083.4 524.052 1083.75 532.05 C 1072.64 521.699 1048.99 523.343 1034.1 523.383 C 1009.71 523.448 984.486 523.287 960.152 524.369 C 956.873 523.409 952.568 523.13 950.934 521.49 L 952.005 519.28 C 944.92 517.93 927.288 524.036 920.378 526.895 C 909.49 531.399 900.025 540.138 890.131 545.831 z"/>
<path transform="translate(0,0)" fill="rgb(189,204,251)" d="M 1043.95 605.447 C 1059.54 594.165 1139.61 600.126 1159.53 603.299 C 1166.38 604.397 1173.19 605.698 1179.96 607.199 C 1175.75 609.202 1177.12 607.737 1174.93 611.016 L 1175.35 613.795 C 1146.52 606.23 1085.93 605.434 1056.11 608.44 L 1055.85 607.724 C 1056.68 605.421 1056.11 604.987 1055.58 602.176 C 1052.7 604.035 1047.39 605.108 1043.95 605.447 z"/>
<path transform="translate(0,0)" fill="rgb(177,191,239)" d="M 1043.95 605.447 C 1047.39 605.108 1052.7 604.035 1055.58 602.176 C 1056.11 604.987 1056.68 605.421 1055.85 607.724 L 1056.11 608.44 C 1047.16 612.173 1045.28 612.428 1040.18 620.865 C 1039.67 620.447 1038.51 619 1038.02 618.434 C 1037.33 612.655 1038.3 608.057 1043.95 605.447 z"/>
<path transform="translate(0,0)" fill="rgb(203,228,255)" d="M 1212.29 1170.34 C 1230.27 1169.71 1244.16 1182.7 1243.82 1200.88 C 1243.14 1220.26 1225.18 1235.83 1212.68 1248.76 C 1122.46 1342.03 969.567 1351.95 865.369 1276.58 C 851.353 1266.44 839.639 1254.4 827.596 1242.11 C 818.235 1231.98 804.055 1218.96 802.077 1204.83 C 799.694 1187.81 810.604 1173.02 827.909 1170.7 C 852.012 1167.47 860.198 1188.48 873.972 1203.23 C 879.774 1209.45 885.668 1214.83 892.503 1219.97 C 959.71 1274.32 1068.82 1277.94 1140.12 1229.11 C 1152.33 1220.68 1163.66 1211.03 1173.92 1200.31 C 1186.13 1187.42 1193.3 1172.54 1212.29 1170.34 z"/>
<path transform="translate(0,0)" fill="rgb(203,228,255)" d="M 1171.75 1032.74 C 1170.52 1030.41 1169.36 1028.05 1168.27 1025.66 C 1152.19 989.888 1166.02 947.625 1202.52 931.53 C 1218.22 924.524 1236.06 924.081 1252.09 930.3 C 1272.79 938.433 1283.12 952.955 1291.72 972.499 C 1297.11 994.732 1296.96 1012.78 1284.62 1033.04 C 1275.27 1048.72 1259.91 1059.9 1242.11 1063.98 C 1225.55 1067.84 1208.13 1064.82 1193.83 1055.61 C 1184.54 1049.63 1177.71 1041.96 1171.75 1032.74 z"/>
<path transform="translate(0,0)" fill="rgb(189,204,251)" d="M 1291.72 972.499 C 1297.11 994.732 1296.96 1012.78 1284.62 1033.04 C 1275.27 1048.72 1259.91 1059.9 1242.11 1063.98 C 1225.55 1067.84 1208.13 1064.82 1193.83 1055.61 C 1184.54 1049.63 1177.71 1041.96 1171.75 1032.74 C 1172.37 1032.44 1174.12 1031.46 1174.56 1031.88 C 1181.15 1038.09 1196.48 1055 1206.19 1056.58 C 1224.44 1059.54 1243.93 1060.69 1260.8 1050.2 C 1277.92 1039.62 1288.11 1019.37 1291.34 1000.02 C 1292.65 992.144 1289.49 980.102 1291.72 972.499 z"/>
<path transform="translate(0,0)" fill="url(#Gradient5)" d="M 1035.03 301.936 C 1127.95 302.614 1220.87 302.659 1313.79 302.071 L 1382.08 301.982 C 1439.07 301.812 1470.8 305.425 1524.16 327.653 C 1533.92 330.286 1553.24 342.182 1561.76 347.018 C 1572.15 352.914 1624.8 394.17 1622.96 405.926 L 1621.97 406.712 C 1615.12 402.759 1612.94 395.88 1605.65 395.886 C 1598.9 399.048 1590.11 404.381 1583.7 408.373 C 1538.6 436.438 1495.96 468.899 1457.41 505.488 C 1439.55 522.444 1422.41 541.791 1403.73 557.364 L 1406.29 567.263 C 1409.67 580.534 1418.14 595.432 1420.8 606.824 C 1417.27 609.334 1410.38 605.355 1407.09 603.241 C 1400.75 602.257 1373.27 586.931 1365.85 582.928 C 1336.43 567.038 1306.44 556.708 1275.11 545.533 C 1266.48 542.614 1254.7 542.095 1246.49 538.535 C 1207.99 522.325 1169.48 505.84 1128.09 497.494 C 1094.69 490.759 1052.53 486.888 1018.41 489.108 C 1004.5 490.013 989.122 490.702 976.195 494.821 C 973.349 495.727 972.635 493.597 968.711 496.44 L 968.927 498.296 C 966.131 499.667 958.551 499.888 954.868 500.291 C 874.692 509.066 789.664 540.648 723.852 588.202 C 721.21 591.044 718.909 592.332 715.663 594.516 C 711.158 598.147 683.014 621.871 679.909 623.203 C 672.676 626.619 666.959 632.919 661.462 638.648 C 653.068 644.32 641.794 650.286 634.107 656.035 C 613.421 671.507 592.419 689.708 573.797 707.67 C 564.264 716.865 555.206 727.979 546.083 737.643 C 544.748 739.056 535.583 749.373 534.664 750.054 C 529.209 752.539 524.666 759.078 520.652 763.532 C 518.145 766.313 512.733 774.99 510.32 776.972 L 508.773 775.653 C 506.448 767.704 526.326 730.146 526.493 718.906 C 535.032 699.514 582.713 615.239 579.643 602.764 C 577.48 593.974 567.508 588.327 560.32 584.001 C 547.227 576.003 533.623 568.874 519.595 562.66 C 485.093 547.577 401.966 520.374 365.748 529.405 C 333.918 559.582 338.083 665.618 337.878 709.44 C 335.051 721.7 336.633 769.278 334.897 787.82 C 332.746 771.392 335.424 753.076 333.903 737.54 C 331.891 716.999 334.267 692.505 331.982 672.966 C 330.998 605.816 331.256 527.009 366.233 466.666 C 376.363 442.687 397.114 416.006 415.408 396.768 C 466.491 343.049 536.707 312.461 609.706 303.869 C 624.927 302.077 650.698 302.867 666.375 302.899 L 750.655 302.894 C 824.524 302.815 902.733 303.829 976.369 302.083 C 984.112 302.98 1026.68 302.555 1035.03 301.936 z"/>
<path transform="translate(0,0)" fill="url(#Gradient4)" d="M 1214.36 316.762 C 1266.14 316.132 1318.78 315.608 1370.47 317.453 C 1387.97 318.078 1406.66 316.422 1423.79 317.035 C 1436.85 317.503 1454.25 320.24 1467.3 322.174 C 1474.98 323.311 1484.12 326.395 1491.74 326.832 C 1499.01 327.248 1500.16 332.403 1507.04 331.432 C 1510.29 330.973 1515.34 326.499 1515.94 326.6 C 1519.69 327.223 1519.03 328.784 1524.16 327.653 C 1533.92 330.286 1553.24 342.182 1561.76 347.018 C 1572.15 352.914 1624.8 394.17 1622.96 405.926 L 1621.97 406.712 C 1615.12 402.759 1612.94 395.88 1605.65 395.886 C 1598.9 399.048 1590.11 404.381 1583.7 408.373 C 1538.6 436.438 1495.96 468.899 1457.41 505.488 C 1439.55 522.444 1422.41 541.791 1403.73 557.364 L 1406.29 567.263 C 1409.67 580.534 1418.14 595.432 1420.8 606.824 C 1417.27 609.334 1410.38 605.355 1407.09 603.241 C 1401.13 597.278 1383.95 590.386 1376.03 585.698 C 1367.65 580.74 1356.39 571.378 1347.34 569.87 C 1343.44 569.22 1343.05 571.037 1339.02 567.593 L 1344.13 567.271 L 1344.31 566.354 C 1340.65 565.165 1340.58 564.97 1336.78 565.808 C 1331.25 553.848 1281.83 543.275 1269.6 533.993 C 1266.21 531.418 1252.29 526.042 1251 524.837 C 1254.33 523.297 1258.97 525.472 1263.91 525.619 L 1263.75 524.237 C 1262.29 523.176 1260.82 522.137 1259.34 521.119 C 1261.34 518.428 1262.22 516.17 1264.8 515.262 C 1266.34 516.773 1266.58 517.616 1267.31 519.64 L 1268.02 517.628 C 1267.78 512.995 1265.13 513.93 1264.22 509.786 C 1266.93 508.942 1268.95 508.658 1270.86 506.616 L 1270.34 504.673 C 1267.27 502.098 1268.05 502.912 1263.28 502.411 C 1258.06 499.297 1255.7 492.232 1253.46 487.804 C 1253.16 487.214 1242.98 484.714 1240.33 480.508 C 1241.09 478.554 1241.09 478.548 1241.57 476.632 L 1240.4 475.051 C 1235.54 473.246 1232.84 475.831 1229.47 474.203 C 1227.74 469.724 1229.81 468.513 1228.97 466.483 C 1226.81 467.918 1227.63 467.019 1226.73 469.43 C 1223.61 468.135 1223.92 468.997 1222.83 466.954 L 1224.38 466.595 L 1224.76 464.862 C 1226.4 464.372 1225.9 464.845 1226.57 463.879 L 1225.15 464.482 L 1225.29 462.355 L 1224.31 461.437 C 1215 463.88 1215.14 463.408 1209.73 454.938 C 1201.39 441.908 1203.33 450.916 1194.86 449.136 C 1191.99 445.729 1192.47 443.522 1191.55 438.618 C 1191.16 441.829 1191.88 440.527 1189.9 442.843 L 1187.88 442.366 C 1186.3 439.409 1186.6 440.932 1186.89 437.651 L 1185.36 436.938 L 1183.02 438.453 L 1181.66 437.466 L 1181.99 435.956 L 1179.94 437.343 L 1178.89 436.391 C 1179.15 435.309 1179.59 433.654 1179.75 432.602 C 1175.75 431.558 1176.34 432.38 1174.3 429.759 C 1174.5 427.474 1174.79 427.424 1174.25 425.36 L 1172.96 426.041 C 1171.65 420.447 1174.5 426.389 1174.17 421.228 C 1171.25 425.939 1170.5 426.135 1166.57 430.071 L 1165.52 429.411 L 1165.81 426.478 C 1163.9 425.299 1163.07 424.661 1161.6 422.979 C 1161.33 424.05 1161.56 423.37 1160.65 424.906 C 1156.95 423.898 1155.07 420.767 1153.91 417.383 C 1156.73 416.432 1157.07 416.253 1158.78 413.696 L 1159.66 414.421 C 1160.26 417.08 1160.26 418.669 1162.36 420.318 L 1164.28 420.086 C 1164.41 416.186 1164 416.99 1166.99 414.553 C 1169.14 415.956 1168.47 415.649 1170.72 416.441 C 1173.63 415.472 1176.19 412.881 1177.66 410.254 C 1174.44 411.326 1172.78 412.6 1170.29 411.711 C 1172.91 407.187 1178.13 409.636 1178.63 402.122 L 1179.52 398.002 L 1182.41 401.589 C 1186.15 401.135 1184.68 401.918 1187.18 399.567 C 1187.35 395.984 1187.17 396.949 1185.02 393.274 C 1184.94 387.863 1187.41 387.174 1186.05 382.985 C 1188.44 384.986 1191.09 387.695 1193.84 388.537 C 1193.7 383.155 1195.44 383.075 1196 378.653 L 1195.79 380.228 L 1194.64 379.469 C 1187.16 385.421 1192.54 379.674 1186.23 378.437 L 1186.72 380.38 C 1184.09 382.332 1185.62 381.605 1181.56 381.615 C 1178.59 379.775 1179.21 380.978 1178.58 378.44 C 1183.91 375.778 1178.6 379.267 1184.44 377.881 C 1181.68 377.136 1182.41 377.758 1180.56 376.02 L 1181.47 374.472 C 1185.35 372.772 1188.49 369.873 1186.84 365.341 C 1184.35 364.741 1183.13 364.711 1181.15 363.141 C 1181.88 356.824 1186.15 356.902 1190.62 357.535 C 1189.08 354.438 1189.7 354.941 1190.3 350.751 C 1193.14 346.378 1196.81 348.594 1200.28 343.941 C 1200.09 340.451 1199.74 341.653 1200.95 338.662 L 1202.91 338.587 C 1205.44 342.586 1202.64 346.515 1205.5 349.861 L 1207.04 349.717 C 1210.74 347.356 1210.95 344.345 1212.1 339.979 C 1213.36 341.032 1213.29 341.346 1213.95 342.839 L 1216.85 343.556 C 1217.66 342.459 1218.34 341.56 1219.2 340.486 L 1220.01 348.098 C 1221.66 347.229 1223.37 344.509 1224.66 342.832 L 1225.43 343.352 L 1224.51 347.746 C 1225.96 345.699 1226.64 343.733 1227.6 341.427 L 1228.57 340.29 L 1230.89 340.351 C 1231.6 334.643 1230.62 330.07 1229.22 324.547 C 1226.47 322.414 1222.96 320.926 1220.95 318.85 C 1219.75 318.384 1216.91 318.624 1215.43 318.649 L 1214.36 316.762 z"/>
<path transform="translate(0,0)" fill="rgb(177,191,239)" d="M 1035.03 301.936 C 1127.95 302.614 1220.87 302.659 1313.79 302.071 L 1382.08 301.982 C 1439.07 301.812 1470.8 305.425 1524.16 327.653 C 1519.03 328.784 1519.69 327.223 1515.94 326.6 C 1515.34 326.499 1510.29 330.973 1507.04 331.432 C 1500.16 332.403 1499.01 327.248 1491.74 326.832 C 1484.12 326.395 1474.98 323.311 1467.3 322.174 C 1454.25 320.24 1436.85 317.503 1423.79 317.035 C 1406.66 316.422 1387.97 318.078 1370.47 317.453 C 1318.78 315.608 1266.14 316.132 1214.36 316.762 C 1210.38 316.17 1193.69 316.51 1188.95 316.489 C 1168.64 316.254 1148.33 316.267 1128.02 316.528 L 960.59 318.037 L 728.645 319.569 C 705.932 319.628 683.329 318.403 660.534 319.388 C 652.434 319.738 641.057 320.482 633.122 320.144 C 597.508 318.628 562.143 329.916 528.504 340.86 C 518.56 344.096 493.898 358.569 485.546 359.12 L 485.046 357.949 C 489.966 353.648 499.597 347.45 506.174 348.66 C 514.467 343.724 519.713 339.927 527.49 334.16 L 529.374 335.767 C 533.692 334.555 550.362 330.194 552.72 327.58 C 558.262 321.437 564.046 326.878 569.989 325.145 C 618.072 311.123 671.668 316.926 721.468 315.233 C 825.566 311.61 929.292 314.028 1033.45 311.584 C 1054.45 311.091 1075.21 311.956 1096.08 312.033 C 1097.79 312.04 1097.9 310.767 1098.63 309.409 C 1103.68 305.866 1106.09 309.659 1109.43 312.855 C 1110.41 311.52 1111.29 310.425 1112.33 309.14 C 1112.91 309.203 1113.5 309.266 1114.08 309.329 C 1121.93 313.45 1130.74 309.006 1138.67 307.4 C 1140.3 307.071 1148.35 312.205 1151.92 309.759 C 1158.6 305.181 1168.8 310.351 1177.07 310.979 L 1178.09 310.035 C 1175.89 310.36 1176.71 310.471 1174.65 309.876 C 1174.96 308.044 1174.63 308.947 1176.55 307.383 C 1192.59 307.132 1189.5 310.426 1200.79 311.707 L 1201.9 310.781 C 1199.93 309.351 1198.76 308.763 1197.25 306.892 C 1207.25 309.276 1208.75 307.694 1217.72 307.099 L 1217.66 308.464 L 1218.82 307.724 C 1225.48 306.223 1231.91 305.918 1238.47 307.876 C 1243.26 309.303 1244.4 309.764 1249.04 307.437 C 1252.14 305.879 1302.97 305.168 1307.67 306.292 C 1309.7 306.779 1309.29 306.974 1310.93 307.869 C 1313.75 309.412 1314.3 309.142 1317.41 308.578 C 1324.89 302.472 1331.27 310.528 1334.34 308.352 L 1333.14 306.306 C 1340.87 306.674 1351.97 307.688 1359.38 307.132 L 1359.01 306.786 L 1360.92 306.373 L 1363.17 309 C 1367.42 306.263 1383.24 306.675 1388.79 306.881 L 1386.45 307.268 C 1395.08 307.478 1420.99 308.005 1428.84 304.747 C 1400.04 303.242 1367.17 304.427 1338.15 304.39 L 1175.13 304.003 C 1042.95 303.322 910.757 303.613 778.576 304.877 C 728.305 305.738 677.667 304.51 627.37 304.875 C 621.364 304.919 615.202 304.521 609.245 305.206 C 558.874 312.161 510.419 327.602 467.773 355.734 C 463.927 358.271 449.926 366.807 447.621 369.724 C 441.959 376.888 430.314 383.365 425.075 388.689 C 402.672 411.456 382.869 437.348 368.297 465.814 C 367.609 466.098 366.921 466.382 366.233 466.666 C 376.363 442.687 397.114 416.006 415.408 396.768 C 466.491 343.049 536.707 312.461 609.706 303.869 C 624.927 302.077 650.698 302.867 666.375 302.899 L 750.655 302.894 C 824.524 302.815 902.733 303.829 976.369 302.083 C 984.112 302.98 1026.68 302.555 1035.03 301.936 z"/>
<path transform="translate(0,0)" fill="rgb(189,204,251)" d="M 1218.82 307.724 C 1225.48 306.223 1231.91 305.918 1238.47 307.876 C 1243.26 309.303 1244.4 309.764 1249.04 307.437 C 1252.14 305.879 1302.97 305.168 1307.67 306.292 C 1309.7 306.779 1309.29 306.974 1310.93 307.869 C 1313.75 309.412 1314.3 309.142 1317.41 308.578 C 1324.89 302.472 1331.27 310.528 1334.34 308.352 L 1333.14 306.306 C 1340.87 306.674 1351.97 307.688 1359.38 307.132 L 1359.01 306.786 L 1360.92 306.373 L 1363.17 309 C 1366.94 310.618 1370.14 309.892 1373.07 312.472 L 1371.3 313.215 C 1365.64 312.158 1341.7 312.658 1334.27 312.647 C 1305.95 312.343 1277.62 312.461 1249.3 313.001 C 1243.27 313.141 1232.44 315.843 1228.05 313.687 L 1230.55 312.733 L 1230.7 312.209 C 1226.49 310.281 1224.18 309.183 1219.72 307.963 L 1218.82 307.724 z"/>
<path transform="translate(0,0)" fill="rgb(131,130,175)" d="M 721.348 586.176 C 723.586 584.424 729.6 580.723 732.369 578.847 C 739.34 574.126 751.079 563.707 758.068 560.195 C 775.26 551.556 795.061 544.282 810.437 532.549 C 818.587 526.329 836.136 523.345 846.255 519.611 C 865.3 512.585 884.579 504.992 904.246 500.123 L 965.897 485.333 C 996.518 478.288 1021.84 479.78 1052.63 476.938 C 1067.41 475.574 1086.17 482.109 1100.61 477.417 C 1102.95 476.657 1122.59 481.452 1126.51 482.22 L 1127.93 480.516 L 1129.77 482.163 C 1131.45 486.244 1132.18 484.861 1136.74 488.035 C 1141.05 489.328 1161.35 492.174 1166.21 492.514 C 1174.56 494.164 1181.71 495.172 1189.28 500.558 C 1190.54 501.458 1198.87 497.15 1200.71 502.029 C 1203.48 504.879 1218.51 506.743 1224.49 509.194 C 1227.42 507.141 1227.8 506.105 1230.8 505.958 L 1229.63 510.401 L 1231.7 508.508 C 1234.75 509.435 1233.66 509.064 1236.29 511.386 C 1245.7 512.396 1249.07 512.825 1256.42 519.062 L 1257.37 513.68 L 1258.63 512.863 C 1261.36 514.659 1261.27 513.784 1261.7 515.81 C 1260.99 517.199 1259.46 519.766 1259.34 521.119 C 1260.82 522.137 1262.29 523.176 1263.75 524.237 L 1263.91 525.619 C 1258.97 525.472 1254.33 523.297 1251 524.837 C 1252.29 526.042 1266.21 531.418 1269.6 533.993 C 1281.83 543.275 1331.25 553.848 1336.78 565.808 C 1340.58 564.97 1340.65 565.165 1344.31 566.354 L 1344.13 567.271 L 1339.02 567.593 C 1343.05 571.037 1343.44 569.22 1347.34 569.87 C 1356.39 571.378 1367.65 580.74 1376.03 585.698 C 1383.95 590.386 1401.13 597.278 1407.09 603.241 C 1400.75 602.257 1373.27 586.931 1365.85 582.928 C 1336.43 567.038 1306.44 556.708 1275.11 545.533 C 1266.48 542.614 1254.7 542.095 1246.49 538.535 C 1207.99 522.325 1169.48 505.84 1128.09 497.494 C 1094.69 490.759 1052.53 486.888 1018.41 489.108 C 1004.5 490.013 989.122 490.702 976.195 494.821 C 973.349 495.727 972.635 493.597 968.711 496.44 L 968.927 498.296 C 966.131 499.667 958.551 499.888 954.868 500.291 C 874.692 509.066 789.664 540.648 723.852 588.202 L 721.348 586.176 z"/>
<path transform="translate(0,0)" fill="rgb(164,173,222)" d="M 1251 524.837 C 1244.72 524.36 1241.71 520.913 1236.57 518.681 C 1220.85 511.856 1198.49 506.837 1181.49 502.774 C 1178.67 503.677 1174.99 498.844 1173.65 498.469 C 1162.16 495.267 1150.04 495.409 1138.26 492.461 C 1086.61 479.534 1033.09 480.917 980.614 486.826 C 973.503 487.626 964.968 490.737 956.669 491.637 L 956.195 490.475 C 957.079 490.055 987.356 482.692 988.868 482.661 C 1024.31 481.938 1060.66 478.65 1096.05 481.075 C 1108.95 481.959 1123.31 486.357 1136.74 488.035 C 1141.05 489.328 1161.35 492.174 1166.21 492.514 C 1174.56 494.164 1181.71 495.172 1189.28 500.558 C 1190.54 501.458 1198.87 497.15 1200.71 502.029 C 1203.48 504.879 1218.51 506.743 1224.49 509.194 C 1227.42 507.141 1227.8 506.105 1230.8 505.958 L 1229.63 510.401 L 1231.7 508.508 C 1234.75 509.435 1233.66 509.064 1236.29 511.386 C 1245.7 512.396 1249.07 512.825 1256.42 519.062 L 1257.37 513.68 L 1258.63 512.863 C 1261.36 514.659 1261.27 513.784 1261.7 515.81 C 1260.99 517.199 1259.46 519.766 1259.34 521.119 C 1260.82 522.137 1262.29 523.176 1263.75 524.237 L 1263.91 525.619 C 1258.97 525.472 1254.33 523.297 1251 524.837 z"/>
<path transform="translate(0,0)" fill="rgb(177,191,239)" d="M 1129.77 482.163 C 1131.12 481.264 1132.91 480.198 1134.55 481.343 C 1140.7 485.646 1163.59 484.964 1166.21 492.514 C 1161.35 492.174 1141.05 489.328 1136.74 488.035 C 1132.18 484.861 1131.45 486.244 1129.77 482.163 z"/>
<path transform="translate(0,0)" fill="rgb(164,173,222)" d="M 1227.6 341.427 L 1225.89 341.733 C 1225.02 337.756 1221.7 339.408 1219.89 334.043 L 1221.48 332.521 C 1224.82 332.097 1225.5 331.521 1228.3 332.687 L 1227.39 337.155 L 1226.68 335.68 L 1226.12 336.914 L 1228.57 340.29 L 1227.6 341.427 z"/>
<path transform="translate(0,0)" fill="rgb(164,173,222)" d="M 1215.43 318.649 C 1216.91 318.624 1219.75 318.384 1220.95 318.85 L 1220.93 319.741 C 1222.9 322.39 1222.5 324.651 1221.1 327.333 C 1219.06 327.351 1218.88 326.68 1216.54 325.321 C 1215.74 322.312 1215.47 321.827 1215.43 318.649 z"/>
<path transform="translate(0,0)" fill="rgb(189,204,251)" d="M 715.663 594.516 C 714.396 594.512 713.144 594.465 711.878 594.428 C 712.806 591.294 718.396 588.162 721.348 586.176 L 723.852 588.202 C 721.21 591.044 718.909 592.332 715.663 594.516 z"/>
<path transform="translate(0,0)" fill="rgb(164,173,222)" d="M 1178.63 402.122 C 1176.62 399.037 1173.29 393.22 1175.98 389.794 L 1177.85 391.232 C 1177.66 394.694 1177.81 394.984 1179.52 398.002 L 1178.63 402.122 z"/>
<path transform="translate(0,0)" fill="rgb(164,173,222)" d="M 1172.73 380.835 C 1173.45 380.929 1174.12 381.547 1174.84 382.032 C 1174.56 384.917 1173.17 386.103 1171.34 388.39 C 1170.71 387.987 1170.09 387.585 1169.46 387.182 L 1169.33 385.426 C 1170.75 383.867 1171.67 382.661 1172.73 380.835 z"/>
<path transform="translate(0,0)" fill="rgb(164,173,222)" d="M 1206.87 334.721 L 1209.31 334.378 L 1209.95 337.671 L 1212.36 339.186 C 1208.54 339.89 1210.34 340.106 1206.79 338.508 C 1206.09 335.961 1206.06 337.223 1206.87 334.721 z"/>
<path transform="translate(0,0)" fill="url(#Gradient3)" d="M 1519.4 882.839 C 1521.54 881.69 1521.31 881.654 1522.95 879.975 C 1531.31 879.368 1579.13 900.003 1586.64 908.833 C 1589.87 912.637 1592.55 913.929 1595.26 919.243 C 1596.26 925.623 1596.48 926.722 1592.7 932.93 C 1596.48 944.189 1596.35 955.162 1596.31 966.913 C 1596.21 997.03 1596.13 1027.17 1596.25 1057.29 C 1596.17 1075.44 1597.89 1099.91 1589.5 1116.18 C 1575.08 1138.42 1557.62 1144.71 1533.96 1155.6 L 1523.06 1159.79 L 1520.29 1158.11 C 1532.23 1103.53 1530.32 1057.71 1530.3 1002.43 C 1530.29 977.538 1531.41 945.711 1526.98 921.43 C 1527.05 913.11 1522.94 894.192 1520.02 886.121 L 1519.4 882.839 z"/>
<path transform="translate(0,0)" fill="rgb(164,173,222)" d="M 1519.4 882.839 C 1521.54 881.69 1521.31 881.654 1522.95 879.975 C 1531.31 879.368 1579.13 900.003 1586.64 908.833 C 1589.87 912.637 1592.55 913.929 1595.26 919.243 C 1596.26 925.623 1596.48 926.722 1592.7 932.93 C 1580.7 905.513 1547.67 892.201 1520.02 886.121 L 1519.4 882.839 z"/>
<path transform="translate(0,0)" fill="url(#Gradient2)" d="M 1595.26 919.243 C 1599.05 925.934 1605.34 941.001 1604.81 948.103 C 1602.63 977.216 1611.04 1096.28 1598.64 1115.31 C 1595.69 1113.72 1592.49 1115.24 1589.5 1116.18 C 1597.89 1099.91 1596.17 1075.44 1596.25 1057.29 C 1596.13 1027.17 1596.21 997.03 1596.31 966.913 C 1596.35 955.162 1596.48 944.189 1592.7 932.93 C 1596.48 926.722 1596.26 925.623 1595.26 919.243 z"/>
<path transform="translate(0,0)" fill="rgb(110,104,146)" d="M 1508.49 1198.97 C 1511.53 1192.63 1518.85 1165.36 1520.29 1158.11 L 1523.06 1159.79 C 1521.85 1162.98 1522.28 1164.08 1521.59 1167.1 L 1521.59 1168.83 C 1524.32 1170.18 1525.17 1170.09 1528.18 1170.51 L 1528.75 1171.83 C 1525.94 1176.96 1522.77 1182.67 1520.93 1188.17 C 1506.84 1230.09 1493.74 1274.8 1463.26 1308.22 C 1456.98 1315.1 1455.63 1321.41 1447.27 1326.87 C 1452.05 1317.67 1461.42 1304.34 1466.99 1294.47 C 1483.11 1265.91 1500.19 1230.7 1508.49 1198.97 z"/>
<path transform="translate(0,0)" fill="rgb(93,79,120)" d="M 308.658 1374.89 C 313.53 1368.76 308.056 1361.78 313.823 1359.01 L 315.648 1359.46 C 318.415 1369.8 315.565 1381.33 315.903 1392.12 C 316.353 1406.54 317.654 1425.18 317.875 1439.17 C 318.045 1449.86 325.835 1476.31 325.298 1480.42 L 324.322 1480.72 C 321.046 1476.27 319.135 1475.42 318.504 1469.53 L 317.87 1469.98 L 317.895 1479.36 C 315.936 1475.46 314.704 1470.64 313.425 1466.41 C 309.216 1457.37 304.051 1381.69 308.658 1374.89 z"/>
<path transform="translate(0,0)" fill="rgb(131,130,175)" d="M 331.982 672.966 C 334.267 692.505 331.891 716.999 333.903 737.54 C 335.424 753.076 332.746 771.392 334.897 787.82 C 336.633 769.278 335.051 721.7 337.878 709.44 C 338.405 718.76 337.849 732.68 337.75 742.266 L 336.59 812.196 L 335.421 872.455 C 335.21 882.388 335.355 899.403 333.848 908.716 C 332.764 898.52 333.182 882.497 333.076 871.658 L 332.391 805.264 L 331.597 721.408 C 331.515 707.04 330.962 686.832 331.982 672.966 z"/>
<path transform="translate(0,0)" fill="rgb(203,228,255)" d="M 1589.5 1116.18 C 1592.49 1115.24 1595.69 1113.72 1598.64 1115.31 C 1591.69 1132.18 1566.55 1151.95 1549.17 1155.53 C 1543.66 1156.7 1539.73 1155.88 1533.96 1155.6 C 1557.62 1144.71 1575.08 1138.42 1589.5 1116.18 z"/>
<path transform="translate(0,0)" fill="rgb(177,191,239)" d="M 512.46 745.977 C 516.188 740.599 523.141 721.824 526.493 718.906 C 526.326 730.146 506.448 767.704 508.773 775.653 L 510.32 776.972 C 512.733 774.99 518.145 766.313 520.652 763.532 C 524.666 759.078 529.209 752.539 534.664 750.054 C 528.697 758.378 506.581 784.826 503.792 790.786 C 501.224 793.311 501.409 793.953 498.393 794.735 C 495.053 785.476 511.559 755.408 512.46 745.977 z"/>
<path transform="translate(0,0)" fill="rgb(93,79,120)" d="M 311.84 840 L 313.663 841.392 C 316.088 866.451 315.536 892.331 317.421 917.57 C 317.709 921.424 314.011 926.843 315.01 934.435 L 313.031 935.046 C 311.299 919.938 312.048 903.723 312.111 888.364 C 312.173 873.197 310.59 854.68 311.84 840 z"/>
<path transform="translate(0,0)" fill="rgb(110,104,146)" d="M 483.99 818.307 C 486.215 808.517 507.295 751.307 512.46 745.977 C 511.559 755.408 495.053 785.476 498.393 794.735 C 501.409 793.953 501.224 793.311 503.792 790.786 C 500.066 798.62 489.635 811.478 483.99 818.307 z"/>
<path transform="translate(0,0)" fill="rgb(110,104,146)" d="M 1074.74 1752.94 C 1077.23 1752.11 1077.47 1752.04 1079.72 1750.71 C 1076.66 1750.06 1075.06 1750.07 1072.86 1747.88 L 1073.3 1746.78 L 1075.45 1746.66 C 1078.28 1748.21 1079.01 1748.61 1082.15 1749.75 C 1085.52 1748.41 1090.12 1746.04 1093.41 1746.64 L 1093.61 1747.73 L 1090.19 1750.55 L 1092.92 1750.28 C 1095.48 1748.3 1096.41 1747.33 1099.52 1746.25 C 1102.09 1747.14 1104.28 1747.82 1106.72 1749.04 L 1103.25 1752.4 C 1099.61 1753.5 1078.94 1753.57 1074.74 1752.94 z"/>
<path transform="translate(0,0)" fill="rgb(203,228,255)" d="M 1523.06 1159.79 L 1533.96 1155.6 C 1539.73 1155.88 1543.66 1156.7 1549.17 1155.53 C 1540.37 1160.27 1531.13 1164.14 1521.59 1167.1 C 1522.28 1164.08 1521.85 1162.98 1523.06 1159.79 z"/>
<path transform="translate(0,0)" fill="rgb(93,79,120)" d="M 411.22 386.71 C 414.355 378.911 430.744 365.912 438.234 360.893 C 437.246 367.819 420.066 381.365 414.276 386.155 L 411.22 386.71 z"/>
<path transform="translate(0,0)" fill="rgb(110,104,146)" d="M 1672.52 1613.85 C 1673.84 1609.37 1679.11 1603.86 1682.55 1600.8 C 1682.46 1606.71 1679.57 1616.93 1673.29 1618.47 C 1672.95 1616.74 1672.73 1615.61 1672.52 1613.85 z"/>
<path transform="translate(0,0)" fill="url(#Gradient1)" d="M 490.154 1671.67 C 496.572 1673.45 505.101 1679.24 511.513 1682.13 C 539.885 1694.93 577.711 1707.85 608.486 1710.3 C 630.713 1712.07 659.386 1711.58 681.509 1711.27 L 738.205 1710.91 C 800.862 1710.19 863.524 1710.06 926.183 1710.53 L 1246.64 1711.7 C 1287.59 1711.83 1327.62 1712.46 1368.5 1709.76 C 1393.75 1708.1 1421.15 1711.97 1446.73 1708.56 C 1470.63 1705.37 1493.58 1698.62 1515.94 1689.68 C 1525.11 1686.06 1533.17 1681.1 1543.15 1677.74 L 1543.67 1678.51 C 1536.17 1685.39 1466.91 1709.25 1454.04 1710.82 C 1439.59 1712.59 1405.27 1713.05 1390.06 1713.03 L 1389.63 1713.76 C 1387.97 1713.14 1433.64 1716.72 1436.28 1716.29 C 1453.57 1713.45 1457.71 1713.31 1477.43 1716.44 C 1483.36 1712.72 1484.63 1711.27 1491.81 1715.57 C 1494.75 1717.32 1500.12 1715.35 1503.26 1714.53 C 1511.29 1711.03 1531.68 1701.52 1538.71 1698.98 L 1538.61 1700.02 C 1536.79 1701.47 1530.18 1706.84 1528.32 1707.54 C 1499.56 1718.35 1466.82 1728.94 1436.33 1731.76 C 1418.03 1733.45 1398.88 1733.08 1380.92 1733.07 L 1301.8 1732.71 L 1066.06 1732.29 L 764.647 1733.05 L 672.499 1733.17 C 624.064 1733.27 581.461 1733.7 535.909 1714.24 C 527.642 1710.71 481.447 1691.77 486.231 1681.21 L 487.547 1681.5 L 490.135 1685.17 C 494.417 1691.21 524.207 1710.13 529.917 1708.72 C 549.269 1703.94 566.494 1713.99 586.347 1710.52 C 589.343 1710 588.208 1710.25 591.298 1711.32 L 592.225 1709.98 C 584.444 1708.72 567.98 1704.62 560.079 1702.48 C 542.62 1697.74 523.641 1688.98 506.702 1682.33 C 503.605 1681.11 499.342 1680.31 496.424 1678.79 C 493.416 1676.05 493.982 1674.6 490.154 1671.67 z"/>
</svg>